<?xml version="1.0" encoding="utf-8" standalone="no"?>
<!DOCTYPE svg PUBLIC "-//W3C//DTD SVG 1.1//EN"
  "http://www.w3.org/Graphics/SVG/1.1/DTD/svg11.dtd">
<svg xmlns:xlink="http://www.w3.org/1999/xlink" width="382.677165pt" height="283.464567pt" viewBox="0 0 382.677165 283.464567" xmlns="http://www.w3.org/2000/svg" version="1.1">
 <metadata>
  <rdf:RDF xmlns:dc="http://purl.org/dc/elements/1.1/" xmlns:cc="http://creativecommons.org/ns#" xmlns:rdf="http://www.w3.org/1999/02/22-rdf-syntax-ns#">
   <cc:Work>
    <dc:type rdf:resource="http://purl.org/dc/dcmitype/StillImage"/>
    <dc:date>2022-11-08T19:15:35.050489</dc:date>
    <dc:format>image/svg+xml</dc:format>
    <dc:creator>
     <cc:Agent>
      <dc:title>Matplotlib v3.5.1, https://matplotlib.org/</dc:title>
     </cc:Agent>
    </dc:creator>
   </cc:Work>
  </rdf:RDF>
 </metadata>
 <defs>
  <style type="text/css">*{stroke-linejoin: round; stroke-linecap: butt}</style>
 </defs>
 <g id="figure_1">
  <g id="patch_1">
   <path d="M 0 283.464567 
L 382.677165 283.464567 
L 382.677165 0 
L 0 0 
z
" style="fill: #ffffff"/>
  </g>
  <g id="axes_1">
   <g id="patch_2">
    <path d="M 53.84 185.924567 
L 371.877165 185.924567 
L 371.877165 10.8 
L 53.84 10.8 
z
" style="fill: #ffffff"/>
   </g>
   <g id="patch_3">
    <path d="M 68.296235 185.924567 
L 70.047747 185.924567 
L 70.047747 185.921659 
L 68.296235 185.921659 
z
" clip-path="url(#pe16dd3fe4d)" style="fill: #f66a6a"/>
   </g>
   <g id="patch_4">
    <path d="M 75.802718 185.924567 
L 77.55423 185.924567 
L 77.55423 185.924567 
L 75.802718 185.924567 
z
" clip-path="url(#pe16dd3fe4d)" style="fill: #f66a6a"/>
   </g>
   <g id="patch_5">
    <path d="M 83.3092 185.924567 
L 85.060713 185.924567 
L 85.060713 185.864633 
L 83.3092 185.864633 
z
" clip-path="url(#pe16dd3fe4d)" style="fill: #f66a6a"/>
   </g>
   <g id="patch_6">
    <path d="M 90.815683 185.924567 
L 92.567196 185.924567 
L 92.567196 185.924567 
L 90.815683 185.924567 
z
" clip-path="url(#pe16dd3fe4d)" style="fill: #f66a6a"/>
   </g>
   <g id="patch_7">
    <path d="M 98.322166 185.924567 
L 100.073679 185.924567 
L 100.073679 185.924567 
L 98.322166 185.924567 
z
" clip-path="url(#pe16dd3fe4d)" style="fill: #f66a6a"/>
   </g>
   <g id="patch_8">
    <path d="M 105.828649 185.924567 
L 107.580161 185.924567 
L 107.580161 185.8047 
L 105.828649 185.8047 
z
" clip-path="url(#pe16dd3fe4d)" style="fill: #f66a6a"/>
   </g>
   <g id="patch_9">
    <path d="M 113.335132 185.924567 
L 115.086644 185.924567 
L 115.086644 185.924567 
L 113.335132 185.924567 
z
" clip-path="url(#pe16dd3fe4d)" style="fill: #f66a6a"/>
   </g>
   <g id="patch_10">
    <path d="M 120.841614 185.924567 
L 122.593127 185.924567 
L 122.593127 185.68504 
L 120.841614 185.68504 
z
" clip-path="url(#pe16dd3fe4d)" style="fill: #f66a6a"/>
   </g>
   <g id="patch_11">
    <path d="M 128.348097 185.924567 
L 130.09961 185.924567 
L 130.09961 185.924567 
L 128.348097 185.924567 
z
" clip-path="url(#pe16dd3fe4d)" style="fill: #f66a6a"/>
   </g>
   <g id="patch_12">
    <path d="M 135.85458 185.924567 
L 137.606093 185.924567 
L 137.606093 185.924567 
L 135.85458 185.924567 
z
" clip-path="url(#pe16dd3fe4d)" style="fill: #f66a6a"/>
   </g>
   <g id="patch_13">
    <path d="M 143.361063 185.924567 
L 145.112575 185.924567 
L 145.112575 185.445514 
L 143.361063 185.445514 
z
" clip-path="url(#pe16dd3fe4d)" style="fill: #f66a6a"/>
   </g>
   <g id="patch_14">
    <path d="M 150.867546 185.924567 
L 152.619058 185.924567 
L 152.619058 185.924567 
L 150.867546 185.924567 
z
" clip-path="url(#pe16dd3fe4d)" style="fill: #f66a6a"/>
   </g>
   <g id="patch_15">
    <path d="M 158.374028 185.924567 
L 160.125541 185.924567 
L 160.125541 184.966876 
L 158.374028 184.966876 
z
" clip-path="url(#pe16dd3fe4d)" style="fill: #f66a6a"/>
   </g>
   <g id="patch_16">
    <path d="M 165.880511 185.924567 
L 167.632024 185.924567 
L 167.632024 185.924567 
L 165.880511 185.924567 
z
" clip-path="url(#pe16dd3fe4d)" style="fill: #f66a6a"/>
   </g>
   <g id="patch_17">
    <path d="M 173.386994 185.924567 
L 175.138507 185.924567 
L 175.138507 184.966876 
L 173.386994 184.966876 
z
" clip-path="url(#pe16dd3fe4d)" style="fill: #f66a6a"/>
   </g>
   <g id="patch_18">
    <path d="M 180.893477 185.924567 
L 182.644989 185.924567 
L 182.644989 185.924567 
L 180.893477 185.924567 
z
" clip-path="url(#pe16dd3fe4d)" style="fill: #f66a6a"/>
   </g>
   <g id="patch_19">
    <path d="M 188.39996 185.924567 
L 190.151472 185.924567 
L 190.151472 185.924567 
L 188.39996 185.924567 
z
" clip-path="url(#pe16dd3fe4d)" style="fill: #f66a6a"/>
   </g>
   <g id="patch_20">
    <path d="M 195.906442 185.924567 
L 197.657955 185.924567 
L 197.657955 184.009185 
L 195.906442 184.009185 
z
" clip-path="url(#pe16dd3fe4d)" style="fill: #f66a6a"/>
   </g>
   <g id="patch_21">
    <path d="M 203.412925 185.924567 
L 205.164438 185.924567 
L 205.164438 185.924567 
L 203.412925 185.924567 
z
" clip-path="url(#pe16dd3fe4d)" style="fill: #f66a6a"/>
   </g>
   <g id="patch_22">
    <path d="M 210.919408 185.924567 
L 212.670921 185.924567 
L 212.670921 182.094634 
L 210.919408 182.094634 
z
" clip-path="url(#pe16dd3fe4d)" style="fill: #f66a6a"/>
   </g>
   <g id="patch_23">
    <path d="M 218.425891 185.924567 
L 220.177403 185.924567 
L 220.177403 185.924567 
L 218.425891 185.924567 
z
" clip-path="url(#pe16dd3fe4d)" style="fill: #f66a6a"/>
   </g>
   <g id="patch_24">
    <path d="M 225.932374 185.924567 
L 227.683886 185.924567 
L 227.683886 182.094634 
L 225.932374 182.094634 
z
" clip-path="url(#pe16dd3fe4d)" style="fill: #f66a6a"/>
   </g>
   <g id="patch_25">
    <path d="M 233.438856 185.924567 
L 235.190369 185.924567 
L 235.190369 185.924567 
L 233.438856 185.924567 
z
" clip-path="url(#pe16dd3fe4d)" style="fill: #f66a6a"/>
   </g>
   <g id="patch_26">
    <path d="M 240.945339 185.924567 
L 242.696852 185.924567 
L 242.696852 185.924567 
L 240.945339 185.924567 
z
" clip-path="url(#pe16dd3fe4d)" style="fill: #f66a6a"/>
   </g>
   <g id="patch_27">
    <path d="M 248.451822 185.924567 
L 250.203335 185.924567 
L 250.203335 182.094634 
L 248.451822 182.094634 
z
" clip-path="url(#pe16dd3fe4d)" style="fill: #f66a6a"/>
   </g>
   <g id="patch_28">
    <path d="M 255.958305 185.924567 
L 257.709817 185.924567 
L 257.709817 185.924567 
L 255.958305 185.924567 
z
" clip-path="url(#pe16dd3fe4d)" style="fill: #f66a6a"/>
   </g>
   <g id="patch_29">
    <path d="M 263.464788 185.924567 
L 265.2163 185.924567 
L 265.2163 182.094634 
L 263.464788 182.094634 
z
" clip-path="url(#pe16dd3fe4d)" style="fill: #f66a6a"/>
   </g>
   <g id="patch_30">
    <path d="M 270.97127 185.924567 
L 272.722783 185.924567 
L 272.722783 185.924567 
L 270.97127 185.924567 
z
" clip-path="url(#pe16dd3fe4d)" style="fill: #f66a6a"/>
   </g>
   <g id="patch_31">
    <path d="M 278.477753 185.924567 
L 280.229266 185.924567 
L 280.229266 182.094634 
L 278.477753 182.094634 
z
" clip-path="url(#pe16dd3fe4d)" style="fill: #f66a6a"/>
   </g>
   <g id="patch_32">
    <path d="M 285.984236 185.924567 
L 287.735749 185.924567 
L 287.735749 185.924567 
L 285.984236 185.924567 
z
" clip-path="url(#pe16dd3fe4d)" style="fill: #f66a6a"/>
   </g>
   <g id="patch_33">
    <path d="M 293.490719 185.924567 
L 295.242231 185.924567 
L 295.242231 185.924567 
L 293.490719 185.924567 
z
" clip-path="url(#pe16dd3fe4d)" style="fill: #f66a6a"/>
   </g>
   <g id="patch_34">
    <path d="M 300.997202 185.924567 
L 302.748714 185.924567 
L 302.748714 185.924567 
L 300.997202 185.924567 
z
" clip-path="url(#pe16dd3fe4d)" style="fill: #f66a6a"/>
   </g>
   <g id="patch_35">
    <path d="M 308.503684 185.924567 
L 310.255197 185.924567 
L 310.255197 19.139265 
L 308.503684 19.139265 
z
" clip-path="url(#pe16dd3fe4d)" style="fill: #f66a6a"/>
   </g>
   <g id="patch_36">
    <path d="M 316.010167 185.924567 
L 317.76168 185.924567 
L 317.76168 185.924567 
L 316.010167 185.924567 
z
" clip-path="url(#pe16dd3fe4d)" style="fill: #f66a6a"/>
   </g>
   <g id="patch_37">
    <path d="M 323.51665 185.924567 
L 325.268163 185.924567 
L 325.268163 185.924567 
L 323.51665 185.924567 
z
" clip-path="url(#pe16dd3fe4d)" style="fill: #f66a6a"/>
   </g>
   <g id="patch_38">
    <path d="M 331.023133 185.924567 
L 332.774645 185.924567 
L 332.774645 158.688751 
L 331.023133 158.688751 
z
" clip-path="url(#pe16dd3fe4d)" style="fill: #f66a6a"/>
   </g>
   <g id="patch_39">
    <path d="M 338.529616 185.924567 
L 340.281128 185.924567 
L 340.281128 185.924567 
L 338.529616 185.924567 
z
" clip-path="url(#pe16dd3fe4d)" style="fill: #f66a6a"/>
   </g>
   <g id="patch_40">
    <path d="M 346.036098 185.924567 
L 347.787611 185.924567 
L 347.787611 185.924567 
L 346.036098 185.924567 
z
" clip-path="url(#pe16dd3fe4d)" style="fill: #f66a6a"/>
   </g>
   <g id="patch_41">
    <path d="M 353.542581 185.924567 
L 355.294094 185.924567 
L 355.294094 179.275198 
L 353.542581 179.275198 
z
" clip-path="url(#pe16dd3fe4d)" style="fill: #f66a6a"/>
   </g>
   <g id="patch_42">
    <path d="M 70.423072 185.924567 
L 72.174584 185.924567 
L 72.174584 172.462881 
L 70.423072 172.462881 
z
" clip-path="url(#pe16dd3fe4d)" style="fill: #36738e"/>
   </g>
   <g id="patch_43">
    <path d="M 77.929554 185.924567 
L 79.681067 185.924567 
L 79.681067 172.462881 
L 77.929554 172.462881 
z
" clip-path="url(#pe16dd3fe4d)" style="fill: #36738e"/>
   </g>
   <g id="patch_44">
    <path d="M 85.436037 185.924567 
L 87.18755 185.924567 
L 87.18755 172.462881 
L 85.436037 172.462881 
z
" clip-path="url(#pe16dd3fe4d)" style="fill: #36738e"/>
   </g>
   <g id="patch_45">
    <path d="M 92.94252 185.924567 
L 94.694033 185.924567 
L 94.694033 172.462881 
L 92.94252 172.462881 
z
" clip-path="url(#pe16dd3fe4d)" style="fill: #36738e"/>
   </g>
   <g id="patch_46">
    <path d="M 100.449003 185.924567 
L 102.200515 185.924567 
L 102.200515 182.559145 
L 100.449003 182.559145 
z
" clip-path="url(#pe16dd3fe4d)" style="fill: #36738e"/>
   </g>
   <g id="patch_47">
    <path d="M 107.955486 185.924567 
L 109.706998 185.924567 
L 109.706998 179.193724 
L 107.955486 179.193724 
z
" clip-path="url(#pe16dd3fe4d)" style="fill: #36738e"/>
   </g>
   <g id="patch_48">
    <path d="M 115.461968 185.924567 
L 117.213481 185.924567 
L 117.213481 179.193724 
L 115.461968 179.193724 
z
" clip-path="url(#pe16dd3fe4d)" style="fill: #36738e"/>
   </g>
   <g id="patch_49">
    <path d="M 122.968451 185.924567 
L 124.719964 185.924567 
L 124.719964 179.193724 
L 122.968451 179.193724 
z
" clip-path="url(#pe16dd3fe4d)" style="fill: #36738e"/>
   </g>
   <g id="patch_50">
    <path d="M 130.474934 185.924567 
L 132.226447 185.924567 
L 132.226447 179.193724 
L 130.474934 179.193724 
z
" clip-path="url(#pe16dd3fe4d)" style="fill: #36738e"/>
   </g>
   <g id="patch_51">
    <path d="M 137.981417 185.924567 
L 139.732929 185.924567 
L 139.732929 184.254321 
L 137.981417 184.254321 
z
" clip-path="url(#pe16dd3fe4d)" style="fill: #36738e"/>
   </g>
   <g id="patch_52">
    <path d="M 145.4879 185.924567 
L 147.239412 185.924567 
L 147.239412 182.584075 
L 145.4879 182.584075 
z
" clip-path="url(#pe16dd3fe4d)" style="fill: #36738e"/>
   </g>
   <g id="patch_53">
    <path d="M 152.994382 185.924567 
L 154.745895 185.924567 
L 154.745895 182.584075 
L 152.994382 182.584075 
z
" clip-path="url(#pe16dd3fe4d)" style="fill: #36738e"/>
   </g>
   <g id="patch_54">
    <path d="M 160.500865 185.924567 
L 162.252378 185.924567 
L 162.252378 182.584075 
L 160.500865 182.584075 
z
" clip-path="url(#pe16dd3fe4d)" style="fill: #36738e"/>
   </g>
   <g id="patch_55">
    <path d="M 168.007348 185.924567 
L 169.758861 185.924567 
L 169.758861 182.584075 
L 168.007348 182.584075 
z
" clip-path="url(#pe16dd3fe4d)" style="fill: #36738e"/>
   </g>
   <g id="patch_56">
    <path d="M 175.513831 185.924567 
L 177.265343 185.924567 
L 177.265343 182.584075 
L 175.513831 182.584075 
z
" clip-path="url(#pe16dd3fe4d)" style="fill: #36738e"/>
   </g>
   <g id="patch_57">
    <path d="M 183.020314 185.924567 
L 184.771826 185.924567 
L 184.771826 182.584075 
L 183.020314 182.584075 
z
" clip-path="url(#pe16dd3fe4d)" style="fill: #36738e"/>
   </g>
   <g id="patch_58">
    <path d="M 190.526796 185.924567 
L 192.278309 185.924567 
L 192.278309 185.101908 
L 190.526796 185.101908 
z
" clip-path="url(#pe16dd3fe4d)" style="fill: #36738e"/>
   </g>
   <g id="patch_59">
    <path d="M 198.033279 185.924567 
L 199.784792 185.924567 
L 199.784792 184.27925 
L 198.033279 184.27925 
z
" clip-path="url(#pe16dd3fe4d)" style="fill: #36738e"/>
   </g>
   <g id="patch_60">
    <path d="M 205.539762 185.924567 
L 207.291275 185.924567 
L 207.291275 184.27925 
L 205.539762 184.27925 
z
" clip-path="url(#pe16dd3fe4d)" style="fill: #36738e"/>
   </g>
   <g id="patch_61">
    <path d="M 213.046245 185.924567 
L 214.797757 185.924567 
L 214.797757 184.27925 
L 213.046245 184.27925 
z
" clip-path="url(#pe16dd3fe4d)" style="fill: #36738e"/>
   </g>
   <g id="patch_62">
    <path d="M 220.552728 185.924567 
L 222.30424 185.924567 
L 222.30424 184.27925 
L 220.552728 184.27925 
z
" clip-path="url(#pe16dd3fe4d)" style="fill: #36738e"/>
   </g>
   <g id="patch_63">
    <path d="M 228.05921 185.924567 
L 229.810723 185.924567 
L 229.810723 184.27925 
L 228.05921 184.27925 
z
" clip-path="url(#pe16dd3fe4d)" style="fill: #36738e"/>
   </g>
   <g id="patch_64">
    <path d="M 235.565693 185.924567 
L 237.317206 185.924567 
L 237.317206 184.27925 
L 235.565693 184.27925 
z
" clip-path="url(#pe16dd3fe4d)" style="fill: #36738e"/>
   </g>
   <g id="patch_65">
    <path d="M 243.072176 185.924567 
L 244.823689 185.924567 
L 244.823689 185.525702 
L 243.072176 185.525702 
z
" clip-path="url(#pe16dd3fe4d)" style="fill: #36738e"/>
   </g>
   <g id="patch_66">
    <path d="M 250.578659 185.924567 
L 252.330171 185.924567 
L 252.330171 185.525702 
L 250.578659 185.525702 
z
" clip-path="url(#pe16dd3fe4d)" style="fill: #36738e"/>
   </g>
   <g id="patch_67">
    <path d="M 258.085142 185.924567 
L 259.836654 185.924567 
L 259.836654 185.525702 
L 258.085142 185.525702 
z
" clip-path="url(#pe16dd3fe4d)" style="fill: #36738e"/>
   </g>
   <g id="patch_68">
    <path d="M 265.591624 185.924567 
L 267.343137 185.924567 
L 267.343137 185.525702 
L 265.591624 185.525702 
z
" clip-path="url(#pe16dd3fe4d)" style="fill: #36738e"/>
   </g>
   <g id="patch_69">
    <path d="M 273.098107 185.924567 
L 274.84962 185.924567 
L 274.84962 185.525702 
L 273.098107 185.525702 
z
" clip-path="url(#pe16dd3fe4d)" style="fill: #36738e"/>
   </g>
   <g id="patch_70">
    <path d="M 280.60459 185.924567 
L 282.356103 185.924567 
L 282.356103 185.525702 
L 280.60459 185.525702 
z
" clip-path="url(#pe16dd3fe4d)" style="fill: #36738e"/>
   </g>
   <g id="patch_71">
    <path d="M 288.111073 185.924567 
L 289.862585 185.924567 
L 289.862585 185.525702 
L 288.111073 185.525702 
z
" clip-path="url(#pe16dd3fe4d)" style="fill: #36738e"/>
   </g>
   <g id="patch_72">
    <path d="M 295.617556 185.924567 
L 297.369068 185.924567 
L 297.369068 185.824851 
L 295.617556 185.824851 
z
" clip-path="url(#pe16dd3fe4d)" style="fill: #36738e"/>
   </g>
   <g id="patch_73">
    <path d="M 303.124038 185.924567 
L 304.875551 185.924567 
L 304.875551 185.883849 
L 303.124038 185.883849 
z
" clip-path="url(#pe16dd3fe4d)" style="fill: #36738e"/>
   </g>
   <g id="patch_74">
    <path d="M 310.630521 185.924567 
L 312.382034 185.924567 
L 312.382034 185.917919 
L 310.630521 185.917919 
z
" clip-path="url(#pe16dd3fe4d)" style="fill: #36738e"/>
   </g>
   <g id="patch_75">
    <path d="M 318.137004 185.924567 
L 319.888517 185.924567 
L 319.888517 185.917919 
L 318.137004 185.917919 
z
" clip-path="url(#pe16dd3fe4d)" style="fill: #36738e"/>
   </g>
   <g id="patch_76">
    <path d="M 325.643487 185.924567 
L 327.394999 185.924567 
L 327.394999 185.917919 
L 325.643487 185.917919 
z
" clip-path="url(#pe16dd3fe4d)" style="fill: #36738e"/>
   </g>
   <g id="patch_77">
    <path d="M 333.14997 185.924567 
L 334.901482 185.924567 
L 334.901482 185.917919 
L 333.14997 185.917919 
z
" clip-path="url(#pe16dd3fe4d)" style="fill: #36738e"/>
   </g>
   <g id="patch_78">
    <path d="M 340.656452 185.924567 
L 342.407965 185.924567 
L 342.407965 185.917919 
L 340.656452 185.917919 
z
" clip-path="url(#pe16dd3fe4d)" style="fill: #36738e"/>
   </g>
   <g id="patch_79">
    <path d="M 348.162935 185.924567 
L 349.914448 185.924567 
L 349.914448 185.917919 
L 348.162935 185.917919 
z
" clip-path="url(#pe16dd3fe4d)" style="fill: #36738e"/>
   </g>
   <g id="patch_80">
    <path d="M 355.669418 185.924567 
L 357.420931 185.924567 
L 357.420931 185.922944 
L 355.669418 185.922944 
z
" clip-path="url(#pe16dd3fe4d)" style="fill: #36738e"/>
   </g>
   <g id="matplotlib.axis_1">
    <g id="xtick_1">
     <g id="line2d_1">
      <defs>
       <path id="m9fbd2b2fbd" d="M 0 0 
L 0 3.5 
" style="stroke: #000000; stroke-width: 0.8"/>
      </defs>
      <g>
       <use xlink:href="#m9fbd2b2fbd" x="70.23541" y="185.924567" style="stroke: #000000; stroke-width: 0.8"/>
      </g>
     </g>
     <g id="text_1">
      <!-- Conv2d -->
      <g transform="translate(72.637753 224.033942)rotate(-90)scale(0.1 -0.1)">
       <defs>
        <path id="TimesNewRomanPS-ItalicMT-43" d="M 4503 4334 
L 4188 2963 
L 4075 2963 
L 4063 3306 
Q 4047 3494 3990 3641 
Q 3934 3788 3821 3895 
Q 3709 4003 3537 4064 
Q 3366 4125 3156 4125 
Q 2597 4125 2178 3819 
Q 1644 3428 1341 2716 
Q 1091 2128 1091 1525 
Q 1091 909 1450 542 
Q 1809 175 2384 175 
Q 2819 175 3158 369 
Q 3497 563 3788 966 
L 3934 966 
Q 3591 419 3172 161 
Q 2753 -97 2169 -97 
Q 1650 -97 1250 120 
Q 850 338 640 731 
Q 431 1125 431 1578 
Q 431 2272 803 2928 
Q 1175 3584 1823 3959 
Q 2472 4334 3131 4334 
Q 3441 4334 3825 4188 
Q 3994 4125 4069 4125 
Q 4144 4125 4200 4156 
Q 4256 4188 4388 4334 
L 4503 4334 
z
" transform="scale(0.015625)"/>
        <path id="TimesNewRomanPS-ItalicMT-6f" d="M 2959 1850 
Q 2959 1381 2711 922 
Q 2463 463 2019 194 
Q 1575 -75 1156 -75 
Q 728 -75 458 198 
Q 188 472 188 906 
Q 188 1366 452 1828 
Q 716 2291 1158 2559 
Q 1600 2828 2013 2828 
Q 2425 2828 2692 2556 
Q 2959 2284 2959 1850 
z
M 2441 2066 
Q 2441 2356 2298 2511 
Q 2156 2666 1931 2666 
Q 1472 2666 1086 2008 
Q 700 1350 700 700 
Q 700 403 850 242 
Q 1000 81 1228 81 
Q 1669 81 2055 736 
Q 2441 1391 2441 2066 
z
" transform="scale(0.015625)"/>
        <path id="TimesNewRomanPS-ItalicMT-6e" d="M 1413 2828 
L 997 1406 
Q 1581 2278 1892 2553 
Q 2203 2828 2491 2828 
Q 2647 2828 2748 2725 
Q 2850 2622 2850 2456 
Q 2850 2269 2759 1956 
L 2378 641 
Q 2313 413 2313 363 
Q 2313 319 2338 289 
Q 2363 259 2391 259 
Q 2428 259 2481 300 
Q 2647 431 2844 700 
L 2941 641 
Q 2650 225 2391 47 
Q 2209 -75 2066 -75 
Q 1950 -75 1881 -4 
Q 1813 66 1813 184 
Q 1813 334 1919 700 
L 2281 1956 
Q 2350 2191 2350 2322 
Q 2350 2384 2309 2423 
Q 2269 2463 2209 2463 
Q 2122 2463 2000 2388 
Q 1769 2247 1519 1923 
Q 1269 1600 991 1097 
Q 844 831 747 516 
L 591 0 
L 122 0 
L 691 1956 
Q 791 2309 791 2381 
Q 791 2450 736 2501 
Q 681 2553 600 2553 
Q 563 2553 469 2541 
L 350 2522 
L 331 2634 
L 1413 2828 
z
" transform="scale(0.015625)"/>
        <path id="TimesNewRomanPS-ItalicMT-76" d="M 138 2634 
L 1041 2828 
Q 1138 2597 1197 2356 
Q 1281 2003 1334 1519 
Q 1359 1275 1403 488 
Q 1794 919 1869 1022 
Q 2281 1581 2344 1678 
Q 2447 1844 2488 1969 
Q 2522 2063 2522 2147 
Q 2522 2228 2376 2334 
Q 2231 2441 2231 2572 
Q 2231 2672 2311 2750 
Q 2391 2828 2500 2828 
Q 2631 2828 2731 2720 
Q 2831 2613 2831 2453 
Q 2831 2294 2781 2147 
Q 2700 1909 2478 1567 
Q 2256 1225 1763 650 
Q 1700 578 1069 -75 
L 953 -75 
Q 878 1903 641 2394 
Q 563 2553 381 2553 
Q 303 2553 159 2525 
L 138 2634 
z
" transform="scale(0.015625)"/>
        <path id="TimesNewRomanPS-ItalicMT-32" d="M 2209 0 
L 100 0 
L 100 116 
Q 1713 1528 2231 2331 
Q 2472 2703 2472 3113 
Q 2472 3438 2272 3642 
Q 2072 3847 1753 3847 
Q 1313 3847 1028 3425 
L 919 3475 
Q 1078 3878 1384 4101 
Q 1691 4325 2047 4325 
Q 2450 4325 2725 4048 
Q 3000 3772 3000 3378 
Q 3000 3103 2903 2869 
Q 2753 2503 2350 2050 
Q 1738 1356 716 453 
L 1778 453 
Q 2034 453 2200 559 
Q 2366 666 2438 844 
L 2563 844 
L 2209 0 
z
" transform="scale(0.015625)"/>
        <path id="TimesNewRomanPS-ItalicMT-64" d="M 3463 4444 
L 2388 756 
Q 2300 456 2300 363 
Q 2300 331 2326 303 
Q 2353 275 2381 275 
Q 2422 275 2478 316 
Q 2584 391 2834 691 
L 2941 625 
Q 2716 313 2486 119 
Q 2256 -75 2056 -75 
Q 1950 -75 1881 0 
Q 1813 75 1813 213 
Q 1813 391 1906 691 
L 2028 1078 
Q 1575 378 1203 109 
Q 947 -75 713 -75 
Q 475 -75 298 136 
Q 122 347 122 709 
Q 122 1175 419 1703 
Q 716 2231 1203 2563 
Q 1588 2828 1909 2828 
Q 2078 2828 2200 2759 
Q 2322 2691 2441 2531 
L 2747 3619 
Q 2781 3734 2803 3803 
Q 2841 3928 2841 4009 
Q 2841 4075 2794 4119 
Q 2728 4172 2625 4172 
Q 2553 4172 2388 4150 
L 2388 4266 
L 3463 4444 
z
M 2303 2225 
Q 2303 2425 2187 2547 
Q 2072 2669 1894 2669 
Q 1500 2669 1073 2019 
Q 647 1369 647 775 
Q 647 541 750 417 
Q 853 294 997 294 
Q 1322 294 1812 997 
Q 2303 1700 2303 2225 
z
" transform="scale(0.015625)"/>
       </defs>
       <use xlink:href="#TimesNewRomanPS-ItalicMT-43"/>
       <use xlink:href="#TimesNewRomanPS-ItalicMT-6f" x="66.699219"/>
       <use xlink:href="#TimesNewRomanPS-ItalicMT-6e" x="116.699219"/>
       <use xlink:href="#TimesNewRomanPS-ItalicMT-76" x="166.699219"/>
       <use xlink:href="#TimesNewRomanPS-ItalicMT-32" x="211.083984"/>
       <use xlink:href="#TimesNewRomanPS-ItalicMT-64" x="261.083984"/>
      </g>
     </g>
    </g>
    <g id="xtick_2">
     <g id="line2d_2">
      <g>
       <use xlink:href="#m9fbd2b2fbd" x="77.741892" y="185.924567" style="stroke: #000000; stroke-width: 0.8"/>
      </g>
     </g>
     <g id="text_2">
      <!-- ReLU -->
      <g transform="translate(80.144236 216.254254)rotate(-90)scale(0.1 -0.1)">
       <defs>
        <path id="TimesNewRomanPS-ItalicMT-52" d="M 2659 0 
L 1981 2059 
Q 1744 2056 1494 2106 
L 1128 825 
Q 1056 575 1056 403 
Q 1056 272 1147 197 
Q 1216 141 1522 116 
L 1494 0 
L -147 0 
L -113 116 
Q 119 125 200 163 
Q 328 216 388 306 
Q 488 453 597 825 
L 1338 3384 
Q 1413 3641 1413 3781 
Q 1413 3925 1295 4025 
Q 1178 4125 959 4122 
L 997 4238 
L 2378 4238 
Q 3072 4238 3378 3975 
Q 3684 3713 3684 3284 
Q 3684 2875 3370 2536 
Q 3056 2197 2509 2106 
L 2922 866 
Q 3072 409 3222 271 
Q 3372 134 3706 116 
L 3672 0 
L 2659 0 
z
M 1547 2284 
Q 1747 2256 1903 2256 
Q 2441 2256 2753 2554 
Q 3066 2853 3066 3297 
Q 3066 3644 2870 3828 
Q 2675 4013 2284 4013 
Q 2184 4013 2047 3988 
L 1547 2284 
z
" transform="scale(0.015625)"/>
        <path id="TimesNewRomanPS-ItalicMT-65" d="M 763 1178 
Q 741 1022 741 919 
Q 741 641 937 445 
Q 1134 250 1416 250 
Q 1641 250 1848 342 
Q 2056 434 2466 750 
L 2531 659 
Q 1791 -75 1119 -75 
Q 663 -75 431 212 
Q 200 500 200 847 
Q 200 1313 487 1800 
Q 775 2288 1209 2558 
Q 1644 2828 2103 2828 
Q 2434 2828 2593 2693 
Q 2753 2559 2753 2375 
Q 2753 2116 2547 1878 
Q 2275 1569 1747 1378 
Q 1397 1250 763 1178 
z
M 784 1331 
Q 1247 1384 1538 1513 
Q 1922 1684 2114 1923 
Q 2306 2163 2306 2378 
Q 2306 2509 2223 2590 
Q 2141 2672 1988 2672 
Q 1669 2672 1311 2333 
Q 953 1994 784 1331 
z
" transform="scale(0.015625)"/>
        <path id="TimesNewRomanPS-ItalicMT-4c" d="M 2934 0 
L -206 0 
L -163 116 
Q 88 122 172 156 
Q 303 213 366 303 
Q 463 447 572 822 
L 1319 3400 
Q 1413 3719 1413 3869 
Q 1413 3988 1327 4053 
Q 1241 4119 1003 4119 
Q 950 4119 919 4122 
L 956 4238 
L 2684 4238 
L 2659 4122 
Q 2369 4122 2247 4065 
Q 2125 4009 2044 3881 
Q 1988 3797 1859 3356 
L 1125 822 
Q 1041 534 1041 422 
Q 1041 347 1125 278 
Q 1178 231 1366 231 
L 1775 231 
Q 2222 231 2484 344 
Q 2678 428 2841 597 
Q 2928 691 3150 1063 
L 3231 1203 
L 3347 1203 
L 2934 0 
z
" transform="scale(0.015625)"/>
        <path id="TimesNewRomanPS-ItalicMT-55" d="M 838 4238 
L 2628 4238 
L 2594 4122 
Q 2319 4116 2201 4070 
Q 2084 4025 2001 3909 
Q 1919 3794 1828 3481 
L 1394 1981 
Q 1278 1581 1256 1456 
Q 1219 1256 1219 1084 
Q 1219 706 1500 445 
Q 1781 184 2253 184 
Q 2563 184 2806 301 
Q 3050 419 3223 630 
Q 3397 841 3540 1202 
Q 3684 1563 3794 1931 
L 4169 3225 
Q 4309 3709 4309 3856 
Q 4309 3959 4214 4032 
Q 4119 4106 3828 4122 
L 3863 4238 
L 5209 4238 
L 5175 4122 
Q 4938 4122 4833 4076 
Q 4728 4031 4650 3914 
Q 4572 3797 4475 3459 
L 4016 1888 
Q 3794 1122 3597 758 
Q 3400 394 3026 148 
Q 2653 -97 2100 -97 
Q 1463 -97 1072 264 
Q 681 625 681 1091 
Q 681 1275 716 1484 
Q 741 1622 838 1959 
L 1256 3400 
Q 1344 3713 1344 3859 
Q 1344 3975 1255 4039 
Q 1166 4103 806 4122 
L 838 4238 
z
" transform="scale(0.015625)"/>
       </defs>
       <use xlink:href="#TimesNewRomanPS-ItalicMT-52"/>
       <use xlink:href="#TimesNewRomanPS-ItalicMT-65" x="61.083984"/>
       <use xlink:href="#TimesNewRomanPS-ItalicMT-4c" x="105.46875"/>
       <use xlink:href="#TimesNewRomanPS-ItalicMT-55" x="161.083984"/>
      </g>
     </g>
    </g>
    <g id="xtick_3">
     <g id="line2d_3">
      <g>
       <use xlink:href="#m9fbd2b2fbd" x="85.248375" y="185.924567" style="stroke: #000000; stroke-width: 0.8"/>
      </g>
     </g>
     <g id="text_3">
      <!-- Conv2d -->
      <g transform="translate(87.650719 224.033942)rotate(-90)scale(0.1 -0.1)">
       <use xlink:href="#TimesNewRomanPS-ItalicMT-43"/>
       <use xlink:href="#TimesNewRomanPS-ItalicMT-6f" x="66.699219"/>
       <use xlink:href="#TimesNewRomanPS-ItalicMT-6e" x="116.699219"/>
       <use xlink:href="#TimesNewRomanPS-ItalicMT-76" x="166.699219"/>
       <use xlink:href="#TimesNewRomanPS-ItalicMT-32" x="211.083984"/>
       <use xlink:href="#TimesNewRomanPS-ItalicMT-64" x="261.083984"/>
      </g>
     </g>
    </g>
    <g id="xtick_4">
     <g id="line2d_4">
      <g>
       <use xlink:href="#m9fbd2b2fbd" x="92.754858" y="185.924567" style="stroke: #000000; stroke-width: 0.8"/>
      </g>
     </g>
     <g id="text_4">
      <!-- ReLU -->
      <g transform="translate(95.157202 216.254254)rotate(-90)scale(0.1 -0.1)">
       <use xlink:href="#TimesNewRomanPS-ItalicMT-52"/>
       <use xlink:href="#TimesNewRomanPS-ItalicMT-65" x="61.083984"/>
       <use xlink:href="#TimesNewRomanPS-ItalicMT-4c" x="105.46875"/>
       <use xlink:href="#TimesNewRomanPS-ItalicMT-55" x="161.083984"/>
      </g>
     </g>
    </g>
    <g id="xtick_5">
     <g id="line2d_5">
      <g>
       <use xlink:href="#m9fbd2b2fbd" x="100.261341" y="185.924567" style="stroke: #000000; stroke-width: 0.8"/>
      </g>
     </g>
     <g id="text_5">
      <!-- MaxPool2d -->
      <g transform="translate(102.663684 239.579254)rotate(-90)scale(0.1 -0.1)">
       <defs>
        <path id="TimesNewRomanPS-ItalicMT-4d" d="M 2028 4238 
L 2419 825 
L 4878 4238 
L 5913 4238 
L 5913 4122 
Q 5575 4100 5516 4078 
Q 5413 4038 5327 3916 
Q 5241 3794 5141 3447 
L 4356 759 
Q 4288 525 4288 391 
Q 4288 269 4372 206 
Q 4491 116 4747 116 
L 4822 116 
L 4794 0 
L 3009 0 
L 3041 116 
L 3125 116 
Q 3363 116 3488 184 
Q 3584 234 3661 373 
Q 3738 513 3875 991 
L 4575 3447 
L 2103 0 
L 1978 0 
L 1581 3447 
L 825 825 
Q 728 491 728 375 
Q 728 259 812 198 
Q 897 138 1222 116 
L 1188 0 
L -209 0 
L -175 116 
L -91 116 
Q 219 116 356 272 
Q 456 384 566 759 
L 1488 3919 
Q 1384 4025 1290 4062 
Q 1197 4100 944 4122 
L 975 4238 
L 2028 4238 
z
" transform="scale(0.015625)"/>
        <path id="TimesNewRomanPS-ItalicMT-61" d="M 3003 2828 
L 2394 709 
L 2325 425 
Q 2316 384 2316 356 
Q 2316 306 2347 269 
Q 2372 241 2409 241 
Q 2450 241 2516 291 
Q 2638 381 2841 666 
L 2947 591 
Q 2731 266 2503 95 
Q 2275 -75 2081 -75 
Q 1947 -75 1880 -8 
Q 1813 59 1813 188 
Q 1813 341 1881 591 
L 1947 825 
Q 1538 291 1194 78 
Q 947 -75 709 -75 
Q 481 -75 315 114 
Q 150 303 150 634 
Q 150 1131 448 1682 
Q 747 2234 1206 2566 
Q 1566 2828 1884 2828 
Q 2075 2828 2201 2728 
Q 2328 2628 2394 2397 
L 2506 2753 
L 3003 2828 
z
M 1891 2666 
Q 1691 2666 1466 2478 
Q 1147 2213 898 1691 
Q 650 1169 650 747 
Q 650 534 756 411 
Q 863 288 1000 288 
Q 1341 288 1741 791 
Q 2275 1459 2275 2163 
Q 2275 2428 2172 2547 
Q 2069 2666 1891 2666 
z
" transform="scale(0.015625)"/>
        <path id="TimesNewRomanPS-ItalicMT-78" d="M 1109 2828 
Q 1263 2666 1341 2503 
Q 1397 2391 1525 1913 
L 1800 2325 
Q 1909 2475 2065 2611 
Q 2222 2747 2341 2797 
Q 2416 2828 2506 2828 
Q 2641 2828 2720 2756 
Q 2800 2684 2800 2581 
Q 2800 2463 2753 2419 
Q 2666 2341 2553 2341 
Q 2488 2341 2413 2369 
Q 2266 2419 2216 2419 
Q 2141 2419 2038 2331 
Q 1844 2169 1575 1703 
L 1831 628 
Q 1891 381 1931 332 
Q 1972 284 2013 284 
Q 2078 284 2166 356 
Q 2338 500 2459 731 
L 2569 675 
Q 2372 306 2069 63 
Q 1897 -75 1778 -75 
Q 1603 -75 1500 122 
Q 1434 244 1228 1172 
Q 741 325 447 81 
Q 256 -75 78 -75 
Q -47 -75 -150 16 
Q -225 84 -225 200 
Q -225 303 -156 372 
Q -88 441 13 441 
Q 113 441 225 341 
Q 306 269 350 269 
Q 388 269 447 319 
Q 594 438 847 831 
Q 1100 1225 1178 1400 
Q 984 2159 969 2203 
Q 897 2406 781 2490 
Q 666 2575 441 2575 
Q 369 2575 275 2569 
L 275 2681 
L 1109 2828 
z
" transform="scale(0.015625)"/>
        <path id="TimesNewRomanPS-ItalicMT-50" d="M 1000 4238 
L 2669 4238 
Q 3325 4238 3650 3955 
Q 3975 3672 3975 3266 
Q 3975 2944 3769 2641 
Q 3563 2338 3156 2148 
Q 2750 1959 2278 1959 
Q 1984 1959 1531 2066 
L 1194 909 
Q 1075 497 1075 366 
Q 1075 266 1159 200 
Q 1244 134 1563 116 
L 1531 0 
L -153 0 
L -119 116 
Q 213 116 342 230 
Q 472 344 622 859 
L 1322 3272 
Q 1447 3706 1447 3853 
Q 1447 3963 1358 4034 
Q 1269 4106 966 4122 
L 1000 4238 
z
M 1584 2263 
Q 1938 2172 2153 2172 
Q 2494 2172 2773 2312 
Q 3053 2453 3211 2734 
Q 3369 3016 3369 3319 
Q 3369 3634 3175 3818 
Q 2981 4003 2588 4003 
Q 2375 4003 2072 3950 
L 1584 2263 
z
" transform="scale(0.015625)"/>
        <path id="TimesNewRomanPS-ItalicMT-6c" d="M 1903 4444 
L 834 725 
Q 756 447 756 384 
Q 756 338 786 306 
Q 816 275 859 275 
Q 919 275 988 328 
Q 1150 456 1328 725 
L 1422 628 
Q 1125 209 875 44 
Q 691 -75 525 -75 
Q 406 -75 326 6 
Q 247 88 247 194 
Q 247 306 347 656 
L 1194 3588 
Q 1297 3947 1297 4000 
Q 1297 4075 1237 4123 
Q 1178 4172 1053 4172 
Q 981 4172 834 4150 
L 834 4266 
L 1903 4444 
z
" transform="scale(0.015625)"/>
       </defs>
       <use xlink:href="#TimesNewRomanPS-ItalicMT-4d"/>
       <use xlink:href="#TimesNewRomanPS-ItalicMT-61" x="83.300781"/>
       <use xlink:href="#TimesNewRomanPS-ItalicMT-78" x="133.300781"/>
       <use xlink:href="#TimesNewRomanPS-ItalicMT-50" x="177.685547"/>
       <use xlink:href="#TimesNewRomanPS-ItalicMT-6f" x="238.769531"/>
       <use xlink:href="#TimesNewRomanPS-ItalicMT-6f" x="288.769531"/>
       <use xlink:href="#TimesNewRomanPS-ItalicMT-6c" x="338.769531"/>
       <use xlink:href="#TimesNewRomanPS-ItalicMT-32" x="366.552734"/>
       <use xlink:href="#TimesNewRomanPS-ItalicMT-64" x="416.552734"/>
      </g>
     </g>
    </g>
    <g id="xtick_6">
     <g id="line2d_6">
      <g>
       <use xlink:href="#m9fbd2b2fbd" x="107.767824" y="185.924567" style="stroke: #000000; stroke-width: 0.8"/>
      </g>
     </g>
     <g id="text_6">
      <!-- Conv2d -->
      <g transform="translate(110.170167 224.033942)rotate(-90)scale(0.1 -0.1)">
       <use xlink:href="#TimesNewRomanPS-ItalicMT-43"/>
       <use xlink:href="#TimesNewRomanPS-ItalicMT-6f" x="66.699219"/>
       <use xlink:href="#TimesNewRomanPS-ItalicMT-6e" x="116.699219"/>
       <use xlink:href="#TimesNewRomanPS-ItalicMT-76" x="166.699219"/>
       <use xlink:href="#TimesNewRomanPS-ItalicMT-32" x="211.083984"/>
       <use xlink:href="#TimesNewRomanPS-ItalicMT-64" x="261.083984"/>
      </g>
     </g>
    </g>
    <g id="xtick_7">
     <g id="line2d_7">
      <g>
       <use xlink:href="#m9fbd2b2fbd" x="115.274306" y="185.924567" style="stroke: #000000; stroke-width: 0.8"/>
      </g>
     </g>
     <g id="text_7">
      <!-- ReLU -->
      <g transform="translate(117.67665 216.254254)rotate(-90)scale(0.1 -0.1)">
       <use xlink:href="#TimesNewRomanPS-ItalicMT-52"/>
       <use xlink:href="#TimesNewRomanPS-ItalicMT-65" x="61.083984"/>
       <use xlink:href="#TimesNewRomanPS-ItalicMT-4c" x="105.46875"/>
       <use xlink:href="#TimesNewRomanPS-ItalicMT-55" x="161.083984"/>
      </g>
     </g>
    </g>
    <g id="xtick_8">
     <g id="line2d_8">
      <g>
       <use xlink:href="#m9fbd2b2fbd" x="122.780789" y="185.924567" style="stroke: #000000; stroke-width: 0.8"/>
      </g>
     </g>
     <g id="text_8">
      <!-- Conv2d -->
      <g transform="translate(125.183133 224.033942)rotate(-90)scale(0.1 -0.1)">
       <use xlink:href="#TimesNewRomanPS-ItalicMT-43"/>
       <use xlink:href="#TimesNewRomanPS-ItalicMT-6f" x="66.699219"/>
       <use xlink:href="#TimesNewRomanPS-ItalicMT-6e" x="116.699219"/>
       <use xlink:href="#TimesNewRomanPS-ItalicMT-76" x="166.699219"/>
       <use xlink:href="#TimesNewRomanPS-ItalicMT-32" x="211.083984"/>
       <use xlink:href="#TimesNewRomanPS-ItalicMT-64" x="261.083984"/>
      </g>
     </g>
    </g>
    <g id="xtick_9">
     <g id="line2d_9">
      <g>
       <use xlink:href="#m9fbd2b2fbd" x="130.287272" y="185.924567" style="stroke: #000000; stroke-width: 0.8"/>
      </g>
     </g>
     <g id="text_9">
      <!-- ReLU -->
      <g transform="translate(132.689616 216.254254)rotate(-90)scale(0.1 -0.1)">
       <use xlink:href="#TimesNewRomanPS-ItalicMT-52"/>
       <use xlink:href="#TimesNewRomanPS-ItalicMT-65" x="61.083984"/>
       <use xlink:href="#TimesNewRomanPS-ItalicMT-4c" x="105.46875"/>
       <use xlink:href="#TimesNewRomanPS-ItalicMT-55" x="161.083984"/>
      </g>
     </g>
    </g>
    <g id="xtick_10">
     <g id="line2d_10">
      <g>
       <use xlink:href="#m9fbd2b2fbd" x="137.793755" y="185.924567" style="stroke: #000000; stroke-width: 0.8"/>
      </g>
     </g>
     <g id="text_10">
      <!-- MaxPool2d -->
      <g transform="translate(140.196098 239.579254)rotate(-90)scale(0.1 -0.1)">
       <use xlink:href="#TimesNewRomanPS-ItalicMT-4d"/>
       <use xlink:href="#TimesNewRomanPS-ItalicMT-61" x="83.300781"/>
       <use xlink:href="#TimesNewRomanPS-ItalicMT-78" x="133.300781"/>
       <use xlink:href="#TimesNewRomanPS-ItalicMT-50" x="177.685547"/>
       <use xlink:href="#TimesNewRomanPS-ItalicMT-6f" x="238.769531"/>
       <use xlink:href="#TimesNewRomanPS-ItalicMT-6f" x="288.769531"/>
       <use xlink:href="#TimesNewRomanPS-ItalicMT-6c" x="338.769531"/>
       <use xlink:href="#TimesNewRomanPS-ItalicMT-32" x="366.552734"/>
       <use xlink:href="#TimesNewRomanPS-ItalicMT-64" x="416.552734"/>
      </g>
     </g>
    </g>
    <g id="xtick_11">
     <g id="line2d_11">
      <g>
       <use xlink:href="#m9fbd2b2fbd" x="145.300237" y="185.924567" style="stroke: #000000; stroke-width: 0.8"/>
      </g>
     </g>
     <g id="text_11">
      <!-- Conv2d -->
      <g transform="translate(147.702581 224.033942)rotate(-90)scale(0.1 -0.1)">
       <use xlink:href="#TimesNewRomanPS-ItalicMT-43"/>
       <use xlink:href="#TimesNewRomanPS-ItalicMT-6f" x="66.699219"/>
       <use xlink:href="#TimesNewRomanPS-ItalicMT-6e" x="116.699219"/>
       <use xlink:href="#TimesNewRomanPS-ItalicMT-76" x="166.699219"/>
       <use xlink:href="#TimesNewRomanPS-ItalicMT-32" x="211.083984"/>
       <use xlink:href="#TimesNewRomanPS-ItalicMT-64" x="261.083984"/>
      </g>
     </g>
    </g>
    <g id="xtick_12">
     <g id="line2d_12">
      <g>
       <use xlink:href="#m9fbd2b2fbd" x="152.80672" y="185.924567" style="stroke: #000000; stroke-width: 0.8"/>
      </g>
     </g>
     <g id="text_12">
      <!-- ReLU -->
      <g transform="translate(155.209064 216.254254)rotate(-90)scale(0.1 -0.1)">
       <use xlink:href="#TimesNewRomanPS-ItalicMT-52"/>
       <use xlink:href="#TimesNewRomanPS-ItalicMT-65" x="61.083984"/>
       <use xlink:href="#TimesNewRomanPS-ItalicMT-4c" x="105.46875"/>
       <use xlink:href="#TimesNewRomanPS-ItalicMT-55" x="161.083984"/>
      </g>
     </g>
    </g>
    <g id="xtick_13">
     <g id="line2d_13">
      <g>
       <use xlink:href="#m9fbd2b2fbd" x="160.313203" y="185.924567" style="stroke: #000000; stroke-width: 0.8"/>
      </g>
     </g>
     <g id="text_13">
      <!-- Conv2d -->
      <g transform="translate(162.715547 224.033942)rotate(-90)scale(0.1 -0.1)">
       <use xlink:href="#TimesNewRomanPS-ItalicMT-43"/>
       <use xlink:href="#TimesNewRomanPS-ItalicMT-6f" x="66.699219"/>
       <use xlink:href="#TimesNewRomanPS-ItalicMT-6e" x="116.699219"/>
       <use xlink:href="#TimesNewRomanPS-ItalicMT-76" x="166.699219"/>
       <use xlink:href="#TimesNewRomanPS-ItalicMT-32" x="211.083984"/>
       <use xlink:href="#TimesNewRomanPS-ItalicMT-64" x="261.083984"/>
      </g>
     </g>
    </g>
    <g id="xtick_14">
     <g id="line2d_14">
      <g>
       <use xlink:href="#m9fbd2b2fbd" x="167.819686" y="185.924567" style="stroke: #000000; stroke-width: 0.8"/>
      </g>
     </g>
     <g id="text_14">
      <!-- ReLU -->
      <g transform="translate(170.22203 216.254254)rotate(-90)scale(0.1 -0.1)">
       <use xlink:href="#TimesNewRomanPS-ItalicMT-52"/>
       <use xlink:href="#TimesNewRomanPS-ItalicMT-65" x="61.083984"/>
       <use xlink:href="#TimesNewRomanPS-ItalicMT-4c" x="105.46875"/>
       <use xlink:href="#TimesNewRomanPS-ItalicMT-55" x="161.083984"/>
      </g>
     </g>
    </g>
    <g id="xtick_15">
     <g id="line2d_15">
      <g>
       <use xlink:href="#m9fbd2b2fbd" x="175.326169" y="185.924567" style="stroke: #000000; stroke-width: 0.8"/>
      </g>
     </g>
     <g id="text_15">
      <!-- Conv2d -->
      <g transform="translate(177.728512 224.033942)rotate(-90)scale(0.1 -0.1)">
       <use xlink:href="#TimesNewRomanPS-ItalicMT-43"/>
       <use xlink:href="#TimesNewRomanPS-ItalicMT-6f" x="66.699219"/>
       <use xlink:href="#TimesNewRomanPS-ItalicMT-6e" x="116.699219"/>
       <use xlink:href="#TimesNewRomanPS-ItalicMT-76" x="166.699219"/>
       <use xlink:href="#TimesNewRomanPS-ItalicMT-32" x="211.083984"/>
       <use xlink:href="#TimesNewRomanPS-ItalicMT-64" x="261.083984"/>
      </g>
     </g>
    </g>
    <g id="xtick_16">
     <g id="line2d_16">
      <g>
       <use xlink:href="#m9fbd2b2fbd" x="182.832651" y="185.924567" style="stroke: #000000; stroke-width: 0.8"/>
      </g>
     </g>
     <g id="text_16">
      <!-- ReLU -->
      <g transform="translate(185.234995 216.254254)rotate(-90)scale(0.1 -0.1)">
       <use xlink:href="#TimesNewRomanPS-ItalicMT-52"/>
       <use xlink:href="#TimesNewRomanPS-ItalicMT-65" x="61.083984"/>
       <use xlink:href="#TimesNewRomanPS-ItalicMT-4c" x="105.46875"/>
       <use xlink:href="#TimesNewRomanPS-ItalicMT-55" x="161.083984"/>
      </g>
     </g>
    </g>
    <g id="xtick_17">
     <g id="line2d_17">
      <g>
       <use xlink:href="#m9fbd2b2fbd" x="190.339134" y="185.924567" style="stroke: #000000; stroke-width: 0.8"/>
      </g>
     </g>
     <g id="text_17">
      <!-- MaxPool2d -->
      <g transform="translate(192.741478 239.579254)rotate(-90)scale(0.1 -0.1)">
       <use xlink:href="#TimesNewRomanPS-ItalicMT-4d"/>
       <use xlink:href="#TimesNewRomanPS-ItalicMT-61" x="83.300781"/>
       <use xlink:href="#TimesNewRomanPS-ItalicMT-78" x="133.300781"/>
       <use xlink:href="#TimesNewRomanPS-ItalicMT-50" x="177.685547"/>
       <use xlink:href="#TimesNewRomanPS-ItalicMT-6f" x="238.769531"/>
       <use xlink:href="#TimesNewRomanPS-ItalicMT-6f" x="288.769531"/>
       <use xlink:href="#TimesNewRomanPS-ItalicMT-6c" x="338.769531"/>
       <use xlink:href="#TimesNewRomanPS-ItalicMT-32" x="366.552734"/>
       <use xlink:href="#TimesNewRomanPS-ItalicMT-64" x="416.552734"/>
      </g>
     </g>
    </g>
    <g id="xtick_18">
     <g id="line2d_18">
      <g>
       <use xlink:href="#m9fbd2b2fbd" x="197.845617" y="185.924567" style="stroke: #000000; stroke-width: 0.8"/>
      </g>
     </g>
     <g id="text_18">
      <!-- Conv2d -->
      <g transform="translate(200.247961 224.033942)rotate(-90)scale(0.1 -0.1)">
       <use xlink:href="#TimesNewRomanPS-ItalicMT-43"/>
       <use xlink:href="#TimesNewRomanPS-ItalicMT-6f" x="66.699219"/>
       <use xlink:href="#TimesNewRomanPS-ItalicMT-6e" x="116.699219"/>
       <use xlink:href="#TimesNewRomanPS-ItalicMT-76" x="166.699219"/>
       <use xlink:href="#TimesNewRomanPS-ItalicMT-32" x="211.083984"/>
       <use xlink:href="#TimesNewRomanPS-ItalicMT-64" x="261.083984"/>
      </g>
     </g>
    </g>
    <g id="xtick_19">
     <g id="line2d_19">
      <g>
       <use xlink:href="#m9fbd2b2fbd" x="205.3521" y="185.924567" style="stroke: #000000; stroke-width: 0.8"/>
      </g>
     </g>
     <g id="text_19">
      <!-- ReLU -->
      <g transform="translate(207.754444 216.254254)rotate(-90)scale(0.1 -0.1)">
       <use xlink:href="#TimesNewRomanPS-ItalicMT-52"/>
       <use xlink:href="#TimesNewRomanPS-ItalicMT-65" x="61.083984"/>
       <use xlink:href="#TimesNewRomanPS-ItalicMT-4c" x="105.46875"/>
       <use xlink:href="#TimesNewRomanPS-ItalicMT-55" x="161.083984"/>
      </g>
     </g>
    </g>
    <g id="xtick_20">
     <g id="line2d_20">
      <g>
       <use xlink:href="#m9fbd2b2fbd" x="212.858583" y="185.924567" style="stroke: #000000; stroke-width: 0.8"/>
      </g>
     </g>
     <g id="text_20">
      <!-- Conv2d -->
      <g transform="translate(215.260926 224.033942)rotate(-90)scale(0.1 -0.1)">
       <use xlink:href="#TimesNewRomanPS-ItalicMT-43"/>
       <use xlink:href="#TimesNewRomanPS-ItalicMT-6f" x="66.699219"/>
       <use xlink:href="#TimesNewRomanPS-ItalicMT-6e" x="116.699219"/>
       <use xlink:href="#TimesNewRomanPS-ItalicMT-76" x="166.699219"/>
       <use xlink:href="#TimesNewRomanPS-ItalicMT-32" x="211.083984"/>
       <use xlink:href="#TimesNewRomanPS-ItalicMT-64" x="261.083984"/>
      </g>
     </g>
    </g>
    <g id="xtick_21">
     <g id="line2d_21">
      <g>
       <use xlink:href="#m9fbd2b2fbd" x="220.365065" y="185.924567" style="stroke: #000000; stroke-width: 0.8"/>
      </g>
     </g>
     <g id="text_21">
      <!-- ReLU -->
      <g transform="translate(222.767409 216.254254)rotate(-90)scale(0.1 -0.1)">
       <use xlink:href="#TimesNewRomanPS-ItalicMT-52"/>
       <use xlink:href="#TimesNewRomanPS-ItalicMT-65" x="61.083984"/>
       <use xlink:href="#TimesNewRomanPS-ItalicMT-4c" x="105.46875"/>
       <use xlink:href="#TimesNewRomanPS-ItalicMT-55" x="161.083984"/>
      </g>
     </g>
    </g>
    <g id="xtick_22">
     <g id="line2d_22">
      <g>
       <use xlink:href="#m9fbd2b2fbd" x="227.871548" y="185.924567" style="stroke: #000000; stroke-width: 0.8"/>
      </g>
     </g>
     <g id="text_22">
      <!-- Conv2d -->
      <g transform="translate(230.273892 224.033942)rotate(-90)scale(0.1 -0.1)">
       <use xlink:href="#TimesNewRomanPS-ItalicMT-43"/>
       <use xlink:href="#TimesNewRomanPS-ItalicMT-6f" x="66.699219"/>
       <use xlink:href="#TimesNewRomanPS-ItalicMT-6e" x="116.699219"/>
       <use xlink:href="#TimesNewRomanPS-ItalicMT-76" x="166.699219"/>
       <use xlink:href="#TimesNewRomanPS-ItalicMT-32" x="211.083984"/>
       <use xlink:href="#TimesNewRomanPS-ItalicMT-64" x="261.083984"/>
      </g>
     </g>
    </g>
    <g id="xtick_23">
     <g id="line2d_23">
      <g>
       <use xlink:href="#m9fbd2b2fbd" x="235.378031" y="185.924567" style="stroke: #000000; stroke-width: 0.8"/>
      </g>
     </g>
     <g id="text_23">
      <!-- ReLU -->
      <g transform="translate(237.780375 216.254254)rotate(-90)scale(0.1 -0.1)">
       <use xlink:href="#TimesNewRomanPS-ItalicMT-52"/>
       <use xlink:href="#TimesNewRomanPS-ItalicMT-65" x="61.083984"/>
       <use xlink:href="#TimesNewRomanPS-ItalicMT-4c" x="105.46875"/>
       <use xlink:href="#TimesNewRomanPS-ItalicMT-55" x="161.083984"/>
      </g>
     </g>
    </g>
    <g id="xtick_24">
     <g id="line2d_24">
      <g>
       <use xlink:href="#m9fbd2b2fbd" x="242.884514" y="185.924567" style="stroke: #000000; stroke-width: 0.8"/>
      </g>
     </g>
     <g id="text_24">
      <!-- MaxPool2d -->
      <g transform="translate(245.286858 239.579254)rotate(-90)scale(0.1 -0.1)">
       <use xlink:href="#TimesNewRomanPS-ItalicMT-4d"/>
       <use xlink:href="#TimesNewRomanPS-ItalicMT-61" x="83.300781"/>
       <use xlink:href="#TimesNewRomanPS-ItalicMT-78" x="133.300781"/>
       <use xlink:href="#TimesNewRomanPS-ItalicMT-50" x="177.685547"/>
       <use xlink:href="#TimesNewRomanPS-ItalicMT-6f" x="238.769531"/>
       <use xlink:href="#TimesNewRomanPS-ItalicMT-6f" x="288.769531"/>
       <use xlink:href="#TimesNewRomanPS-ItalicMT-6c" x="338.769531"/>
       <use xlink:href="#TimesNewRomanPS-ItalicMT-32" x="366.552734"/>
       <use xlink:href="#TimesNewRomanPS-ItalicMT-64" x="416.552734"/>
      </g>
     </g>
    </g>
    <g id="xtick_25">
     <g id="line2d_25">
      <g>
       <use xlink:href="#m9fbd2b2fbd" x="250.390997" y="185.924567" style="stroke: #000000; stroke-width: 0.8"/>
      </g>
     </g>
     <g id="text_25">
      <!-- Conv2d -->
      <g transform="translate(252.79334 224.033942)rotate(-90)scale(0.1 -0.1)">
       <use xlink:href="#TimesNewRomanPS-ItalicMT-43"/>
       <use xlink:href="#TimesNewRomanPS-ItalicMT-6f" x="66.699219"/>
       <use xlink:href="#TimesNewRomanPS-ItalicMT-6e" x="116.699219"/>
       <use xlink:href="#TimesNewRomanPS-ItalicMT-76" x="166.699219"/>
       <use xlink:href="#TimesNewRomanPS-ItalicMT-32" x="211.083984"/>
       <use xlink:href="#TimesNewRomanPS-ItalicMT-64" x="261.083984"/>
      </g>
     </g>
    </g>
    <g id="xtick_26">
     <g id="line2d_26">
      <g>
       <use xlink:href="#m9fbd2b2fbd" x="257.897479" y="185.924567" style="stroke: #000000; stroke-width: 0.8"/>
      </g>
     </g>
     <g id="text_26">
      <!-- ReLU -->
      <g transform="translate(260.299823 216.254254)rotate(-90)scale(0.1 -0.1)">
       <use xlink:href="#TimesNewRomanPS-ItalicMT-52"/>
       <use xlink:href="#TimesNewRomanPS-ItalicMT-65" x="61.083984"/>
       <use xlink:href="#TimesNewRomanPS-ItalicMT-4c" x="105.46875"/>
       <use xlink:href="#TimesNewRomanPS-ItalicMT-55" x="161.083984"/>
      </g>
     </g>
    </g>
    <g id="xtick_27">
     <g id="line2d_27">
      <g>
       <use xlink:href="#m9fbd2b2fbd" x="265.403962" y="185.924567" style="stroke: #000000; stroke-width: 0.8"/>
      </g>
     </g>
     <g id="text_27">
      <!-- Conv2d -->
      <g transform="translate(267.806306 224.033942)rotate(-90)scale(0.1 -0.1)">
       <use xlink:href="#TimesNewRomanPS-ItalicMT-43"/>
       <use xlink:href="#TimesNewRomanPS-ItalicMT-6f" x="66.699219"/>
       <use xlink:href="#TimesNewRomanPS-ItalicMT-6e" x="116.699219"/>
       <use xlink:href="#TimesNewRomanPS-ItalicMT-76" x="166.699219"/>
       <use xlink:href="#TimesNewRomanPS-ItalicMT-32" x="211.083984"/>
       <use xlink:href="#TimesNewRomanPS-ItalicMT-64" x="261.083984"/>
      </g>
     </g>
    </g>
    <g id="xtick_28">
     <g id="line2d_28">
      <g>
       <use xlink:href="#m9fbd2b2fbd" x="272.910445" y="185.924567" style="stroke: #000000; stroke-width: 0.8"/>
      </g>
     </g>
     <g id="text_28">
      <!-- ReLU -->
      <g transform="translate(275.312789 216.254254)rotate(-90)scale(0.1 -0.1)">
       <use xlink:href="#TimesNewRomanPS-ItalicMT-52"/>
       <use xlink:href="#TimesNewRomanPS-ItalicMT-65" x="61.083984"/>
       <use xlink:href="#TimesNewRomanPS-ItalicMT-4c" x="105.46875"/>
       <use xlink:href="#TimesNewRomanPS-ItalicMT-55" x="161.083984"/>
      </g>
     </g>
    </g>
    <g id="xtick_29">
     <g id="line2d_29">
      <g>
       <use xlink:href="#m9fbd2b2fbd" x="280.416928" y="185.924567" style="stroke: #000000; stroke-width: 0.8"/>
      </g>
     </g>
     <g id="text_29">
      <!-- Conv2d -->
      <g transform="translate(282.819272 224.033942)rotate(-90)scale(0.1 -0.1)">
       <use xlink:href="#TimesNewRomanPS-ItalicMT-43"/>
       <use xlink:href="#TimesNewRomanPS-ItalicMT-6f" x="66.699219"/>
       <use xlink:href="#TimesNewRomanPS-ItalicMT-6e" x="116.699219"/>
       <use xlink:href="#TimesNewRomanPS-ItalicMT-76" x="166.699219"/>
       <use xlink:href="#TimesNewRomanPS-ItalicMT-32" x="211.083984"/>
       <use xlink:href="#TimesNewRomanPS-ItalicMT-64" x="261.083984"/>
      </g>
     </g>
    </g>
    <g id="xtick_30">
     <g id="line2d_30">
      <g>
       <use xlink:href="#m9fbd2b2fbd" x="287.923411" y="185.924567" style="stroke: #000000; stroke-width: 0.8"/>
      </g>
     </g>
     <g id="text_30">
      <!-- ReLU -->
      <g transform="translate(290.325754 216.254254)rotate(-90)scale(0.1 -0.1)">
       <use xlink:href="#TimesNewRomanPS-ItalicMT-52"/>
       <use xlink:href="#TimesNewRomanPS-ItalicMT-65" x="61.083984"/>
       <use xlink:href="#TimesNewRomanPS-ItalicMT-4c" x="105.46875"/>
       <use xlink:href="#TimesNewRomanPS-ItalicMT-55" x="161.083984"/>
      </g>
     </g>
    </g>
    <g id="xtick_31">
     <g id="line2d_31">
      <g>
       <use xlink:href="#m9fbd2b2fbd" x="295.429893" y="185.924567" style="stroke: #000000; stroke-width: 0.8"/>
      </g>
     </g>
     <g id="text_31">
      <!-- MaxPool2d -->
      <g transform="translate(297.832237 239.579254)rotate(-90)scale(0.1 -0.1)">
       <use xlink:href="#TimesNewRomanPS-ItalicMT-4d"/>
       <use xlink:href="#TimesNewRomanPS-ItalicMT-61" x="83.300781"/>
       <use xlink:href="#TimesNewRomanPS-ItalicMT-78" x="133.300781"/>
       <use xlink:href="#TimesNewRomanPS-ItalicMT-50" x="177.685547"/>
       <use xlink:href="#TimesNewRomanPS-ItalicMT-6f" x="238.769531"/>
       <use xlink:href="#TimesNewRomanPS-ItalicMT-6f" x="288.769531"/>
       <use xlink:href="#TimesNewRomanPS-ItalicMT-6c" x="338.769531"/>
       <use xlink:href="#TimesNewRomanPS-ItalicMT-32" x="366.552734"/>
       <use xlink:href="#TimesNewRomanPS-ItalicMT-64" x="416.552734"/>
      </g>
     </g>
    </g>
    <g id="xtick_32">
     <g id="line2d_32">
      <g>
       <use xlink:href="#m9fbd2b2fbd" x="302.936376" y="185.924567" style="stroke: #000000; stroke-width: 0.8"/>
      </g>
     </g>
     <g id="text_32">
      <!-- AdaptiveAvgPool2d -->
      <g transform="translate(305.329345 272.349567)rotate(-90)scale(0.1 -0.1)">
       <defs>
        <path id="TimesNewRomanPS-ItalicMT-41" d="M 3297 4334 
L 2975 809 
Q 2950 563 2950 484 
Q 2950 359 2997 294 
Q 3056 203 3157 159 
Q 3259 116 3500 116 
L 3466 0 
L 1797 0 
L 1831 116 
L 1903 116 
Q 2106 116 2234 203 
Q 2325 263 2375 400 
Q 2409 497 2441 856 
L 2491 1394 
L 1278 1394 
L 847 809 
Q 700 613 662 527 
Q 625 441 625 366 
Q 625 266 706 194 
Q 788 122 975 116 
L 941 0 
L -313 0 
L -278 116 
Q -47 125 129 270 
Q 306 416 656 891 
L 3188 4334 
L 3297 4334 
z
M 2678 3294 
L 1450 1622 
L 2516 1622 
L 2678 3294 
z
" transform="scale(0.015625)"/>
        <path id="TimesNewRomanPS-ItalicMT-70" d="M 1416 2828 
L 1200 2109 
Q 1541 2509 1808 2668 
Q 2075 2828 2353 2828 
Q 2631 2828 2828 2608 
Q 3025 2388 3025 2034 
Q 3025 1347 2465 636 
Q 1906 -75 1163 -75 
Q 1006 -75 886 -40 
Q 766 -6 616 81 
L 388 -725 
Q 319 -963 319 -1034 
Q 319 -1103 355 -1151 
Q 391 -1200 472 -1226 
Q 553 -1253 794 -1253 
L 766 -1369 
L -706 -1369 
L -675 -1253 
Q -384 -1241 -282 -1153 
Q -181 -1066 -69 -669 
L 722 2069 
Q 794 2328 794 2391 
Q 794 2475 745 2522 
Q 697 2569 597 2569 
Q 506 2569 344 2547 
L 344 2669 
L 1416 2828 
z
M 688 328 
Q 881 97 1209 97 
Q 1372 97 1540 187 
Q 1709 278 1870 456 
Q 2031 634 2159 867 
Q 2288 1100 2389 1415 
Q 2491 1731 2491 2041 
Q 2491 2291 2377 2423 
Q 2263 2556 2109 2556 
Q 1772 2556 1442 2168 
Q 1113 1781 959 1263 
L 688 328 
z
" transform="scale(0.015625)"/>
        <path id="TimesNewRomanPS-ItalicMT-74" d="M 1663 3603 
L 1419 2753 
L 1909 2753 
L 1856 2556 
L 1369 2556 
L 831 713 
Q 744 416 744 328 
Q 744 275 769 247 
Q 794 219 828 219 
Q 906 219 1034 328 
Q 1109 391 1369 713 
L 1472 634 
Q 1184 216 928 44 
Q 753 -75 575 -75 
Q 438 -75 350 11 
Q 263 97 263 231 
Q 263 400 363 747 
L 884 2556 
L 413 2556 
L 444 2678 
Q 788 2772 1016 2958 
Q 1244 3144 1525 3603 
L 1663 3603 
z
" transform="scale(0.015625)"/>
        <path id="TimesNewRomanPS-ItalicMT-69" d="M 1431 4069 
Q 1563 4069 1653 3978 
Q 1744 3888 1744 3756 
Q 1744 3628 1651 3536 
Q 1559 3444 1431 3444 
Q 1303 3444 1211 3536 
Q 1119 3628 1119 3756 
Q 1119 3888 1209 3978 
Q 1300 4069 1431 4069 
z
M 1472 2828 
L 853 638 
Q 791 416 791 372 
Q 791 322 820 290 
Q 850 259 891 259 
Q 938 259 1003 309 
Q 1181 450 1363 709 
L 1472 638 
Q 1259 313 972 91 
Q 759 -75 566 -75 
Q 438 -75 356 1 
Q 275 78 275 194 
Q 275 309 353 578 
L 759 1978 
Q 859 2322 859 2409 
Q 859 2478 811 2522 
Q 763 2566 678 2566 
Q 609 2566 394 2531 
L 394 2653 
L 1472 2828 
z
" transform="scale(0.015625)"/>
        <path id="TimesNewRomanPS-ItalicMT-67" d="M 3334 2634 
L 3244 2309 
L 2722 2309 
Q 2781 2141 2781 1994 
Q 2781 1581 2431 1259 
Q 2078 938 1463 903 
Q 1131 803 966 666 
Q 903 616 903 563 
Q 903 500 959 448 
Q 1016 397 1244 344 
L 1850 203 
Q 2353 84 2516 -78 
Q 2675 -244 2675 -459 
Q 2675 -716 2486 -928 
Q 2297 -1141 1933 -1261 
Q 1569 -1381 1128 -1381 
Q 741 -1381 422 -1289 
Q 103 -1197 -34 -1040 
Q -172 -884 -172 -719 
Q -172 -584 -83 -439 
Q 6 -294 141 -200 
Q 225 -141 619 81 
Q 475 194 475 328 
Q 475 453 601 593 
Q 728 734 1138 903 
Q 794 969 592 1191 
Q 391 1413 391 1684 
Q 391 2128 780 2478 
Q 1169 2828 1816 2828 
Q 2050 2828 2200 2781 
Q 2350 2734 2491 2634 
L 3334 2634 
z
M 2250 2144 
Q 2250 2394 2111 2537 
Q 1972 2681 1747 2681 
Q 1394 2681 1164 2326 
Q 934 1972 934 1588 
Q 934 1347 1081 1194 
Q 1228 1041 1438 1041 
Q 1603 1041 1758 1131 
Q 1913 1222 2019 1381 
Q 2125 1541 2187 1787 
Q 2250 2034 2250 2144 
z
M 753 0 
Q 500 -116 370 -297 
Q 241 -478 241 -653 
Q 241 -859 428 -994 
Q 697 -1188 1216 -1188 
Q 1663 -1188 1980 -1036 
Q 2297 -884 2297 -644 
Q 2297 -522 2180 -412 
Q 2063 -303 1725 -234 
Q 1541 -197 753 0 
z
" transform="scale(0.015625)"/>
       </defs>
       <use xlink:href="#TimesNewRomanPS-ItalicMT-41"/>
       <use xlink:href="#TimesNewRomanPS-ItalicMT-64" x="61.083984"/>
       <use xlink:href="#TimesNewRomanPS-ItalicMT-61" x="111.083984"/>
       <use xlink:href="#TimesNewRomanPS-ItalicMT-70" x="161.083984"/>
       <use xlink:href="#TimesNewRomanPS-ItalicMT-74" x="211.083984"/>
       <use xlink:href="#TimesNewRomanPS-ItalicMT-69" x="238.867188"/>
       <use xlink:href="#TimesNewRomanPS-ItalicMT-76" x="266.650391"/>
       <use xlink:href="#TimesNewRomanPS-ItalicMT-65" x="311.035156"/>
       <use xlink:href="#TimesNewRomanPS-ItalicMT-41" x="355.419922"/>
       <use xlink:href="#TimesNewRomanPS-ItalicMT-76" x="411.003906"/>
       <use xlink:href="#TimesNewRomanPS-ItalicMT-67" x="455.388672"/>
       <use xlink:href="#TimesNewRomanPS-ItalicMT-50" x="505.388672"/>
       <use xlink:href="#TimesNewRomanPS-ItalicMT-6f" x="566.472656"/>
       <use xlink:href="#TimesNewRomanPS-ItalicMT-6f" x="616.472656"/>
       <use xlink:href="#TimesNewRomanPS-ItalicMT-6c" x="666.472656"/>
       <use xlink:href="#TimesNewRomanPS-ItalicMT-32" x="694.255859"/>
       <use xlink:href="#TimesNewRomanPS-ItalicMT-64" x="744.255859"/>
      </g>
     </g>
    </g>
    <g id="xtick_33">
     <g id="line2d_33">
      <g>
       <use xlink:href="#m9fbd2b2fbd" x="310.442859" y="185.924567" style="stroke: #000000; stroke-width: 0.8"/>
      </g>
     </g>
     <g id="text_33">
      <!-- Linear -->
      <g transform="translate(312.845203 219.594879)rotate(-90)scale(0.1 -0.1)">
       <defs>
        <path id="TimesNewRomanPS-ItalicMT-72" d="M 334 2653 
L 1413 2828 
L 963 1309 
Q 1509 2244 1956 2616 
Q 2209 2828 2369 2828 
Q 2472 2828 2531 2767 
Q 2591 2706 2591 2591 
Q 2591 2384 2484 2197 
Q 2409 2056 2269 2056 
Q 2197 2056 2145 2103 
Q 2094 2150 2081 2247 
Q 2075 2306 2053 2325 
Q 2028 2350 1994 2350 
Q 1941 2350 1894 2325 
Q 1813 2281 1647 2081 
Q 1388 1775 1084 1288 
Q 953 1081 859 822 
Q 728 466 709 394 
L 609 0 
L 131 0 
L 709 1941 
Q 809 2278 809 2422 
Q 809 2478 763 2516 
Q 700 2566 597 2566 
Q 531 2566 356 2538 
L 334 2653 
z
" transform="scale(0.015625)"/>
       </defs>
       <use xlink:href="#TimesNewRomanPS-ItalicMT-4c"/>
       <use xlink:href="#TimesNewRomanPS-ItalicMT-69" x="55.615234"/>
       <use xlink:href="#TimesNewRomanPS-ItalicMT-6e" x="83.398438"/>
       <use xlink:href="#TimesNewRomanPS-ItalicMT-65" x="133.398438"/>
       <use xlink:href="#TimesNewRomanPS-ItalicMT-61" x="177.783203"/>
       <use xlink:href="#TimesNewRomanPS-ItalicMT-72" x="227.783203"/>
      </g>
     </g>
    </g>
    <g id="xtick_34">
     <g id="line2d_34">
      <g>
       <use xlink:href="#m9fbd2b2fbd" x="317.949342" y="185.924567" style="stroke: #000000; stroke-width: 0.8"/>
      </g>
     </g>
     <g id="text_34">
      <!-- ReLU -->
      <g transform="translate(320.351686 216.254254)rotate(-90)scale(0.1 -0.1)">
       <use xlink:href="#TimesNewRomanPS-ItalicMT-52"/>
       <use xlink:href="#TimesNewRomanPS-ItalicMT-65" x="61.083984"/>
       <use xlink:href="#TimesNewRomanPS-ItalicMT-4c" x="105.46875"/>
       <use xlink:href="#TimesNewRomanPS-ItalicMT-55" x="161.083984"/>
      </g>
     </g>
    </g>
    <g id="xtick_35">
     <g id="line2d_35">
      <g>
       <use xlink:href="#m9fbd2b2fbd" x="325.455825" y="185.924567" style="stroke: #000000; stroke-width: 0.8"/>
      </g>
     </g>
     <g id="text_35">
      <!-- Dropout -->
      <g transform="translate(327.858168 226.441754)rotate(-90)scale(0.1 -0.1)">
       <defs>
        <path id="TimesNewRomanPS-ItalicMT-44" d="M 938 4122 
L 975 4238 
L 2328 4238 
Q 3188 4238 3602 4041 
Q 4016 3844 4262 3420 
Q 4509 2997 4509 2513 
Q 4509 2097 4367 1705 
Q 4225 1313 4045 1077 
Q 3866 841 3494 556 
Q 3122 272 2687 136 
Q 2253 0 1603 0 
L -191 0 
L -150 116 
Q 97 122 181 159 
Q 306 213 366 303 
Q 456 434 569 831 
L 1319 3394 
Q 1406 3697 1406 3869 
Q 1406 3991 1325 4056 
Q 1244 4122 1006 4122 
L 938 4122 
z
M 2047 4003 
L 1128 831 
Q 1025 475 1025 391 
Q 1025 341 1058 294 
Q 1091 247 1147 231 
Q 1228 203 1409 203 
Q 1900 203 2320 304 
Q 2741 406 3009 606 
Q 3391 897 3619 1406 
Q 3847 1916 3847 2566 
Q 3847 3300 3497 3658 
Q 3147 4016 2475 4016 
Q 2309 4016 2047 4003 
z
" transform="scale(0.015625)"/>
        <path id="TimesNewRomanPS-ItalicMT-75" d="M 3013 2753 
L 2469 891 
Q 2347 475 2347 366 
Q 2347 309 2367 282 
Q 2388 256 2422 256 
Q 2475 256 2539 304 
Q 2603 353 2863 691 
L 2956 619 
Q 2709 228 2450 44 
Q 2278 -75 2119 -75 
Q 1997 -75 1928 -6 
Q 1859 63 1859 172 
Q 1859 278 1900 453 
Q 1950 684 2184 1459 
Q 1653 588 1295 256 
Q 938 -75 631 -75 
Q 488 -75 388 25 
Q 288 125 288 278 
Q 288 513 425 997 
L 697 1963 
Q 797 2309 797 2394 
Q 797 2431 770 2457 
Q 744 2484 713 2484 
Q 647 2484 581 2437 
Q 516 2391 284 2091 
L 188 2159 
Q 422 2522 684 2694 
Q 884 2828 1053 2828 
Q 1169 2828 1242 2754 
Q 1316 2681 1316 2566 
Q 1316 2397 1191 1963 
L 897 953 
Q 775 541 775 431 
Q 775 372 814 336 
Q 853 300 919 300 
Q 1022 300 1187 403 
Q 1353 506 1629 861 
Q 1906 1216 2086 1527 
Q 2266 1838 2469 2516 
L 2538 2753 
L 3013 2753 
z
" transform="scale(0.015625)"/>
       </defs>
       <use xlink:href="#TimesNewRomanPS-ItalicMT-44"/>
       <use xlink:href="#TimesNewRomanPS-ItalicMT-72" x="72.216797"/>
       <use xlink:href="#TimesNewRomanPS-ItalicMT-6f" x="107.382812"/>
       <use xlink:href="#TimesNewRomanPS-ItalicMT-70" x="157.382812"/>
       <use xlink:href="#TimesNewRomanPS-ItalicMT-6f" x="207.382812"/>
       <use xlink:href="#TimesNewRomanPS-ItalicMT-75" x="257.382812"/>
       <use xlink:href="#TimesNewRomanPS-ItalicMT-74" x="307.382812"/>
      </g>
     </g>
    </g>
    <g id="xtick_36">
     <g id="line2d_36">
      <g>
       <use xlink:href="#m9fbd2b2fbd" x="332.962307" y="185.924567" style="stroke: #000000; stroke-width: 0.8"/>
      </g>
     </g>
     <g id="text_36">
      <!-- Linear -->
      <g transform="translate(335.364651 219.594879)rotate(-90)scale(0.1 -0.1)">
       <use xlink:href="#TimesNewRomanPS-ItalicMT-4c"/>
       <use xlink:href="#TimesNewRomanPS-ItalicMT-69" x="55.615234"/>
       <use xlink:href="#TimesNewRomanPS-ItalicMT-6e" x="83.398438"/>
       <use xlink:href="#TimesNewRomanPS-ItalicMT-65" x="133.398438"/>
       <use xlink:href="#TimesNewRomanPS-ItalicMT-61" x="177.783203"/>
       <use xlink:href="#TimesNewRomanPS-ItalicMT-72" x="227.783203"/>
      </g>
     </g>
    </g>
    <g id="xtick_37">
     <g id="line2d_37">
      <g>
       <use xlink:href="#m9fbd2b2fbd" x="340.46879" y="185.924567" style="stroke: #000000; stroke-width: 0.8"/>
      </g>
     </g>
     <g id="text_37">
      <!-- ReLU -->
      <g transform="translate(342.871134 216.254254)rotate(-90)scale(0.1 -0.1)">
       <use xlink:href="#TimesNewRomanPS-ItalicMT-52"/>
       <use xlink:href="#TimesNewRomanPS-ItalicMT-65" x="61.083984"/>
       <use xlink:href="#TimesNewRomanPS-ItalicMT-4c" x="105.46875"/>
       <use xlink:href="#TimesNewRomanPS-ItalicMT-55" x="161.083984"/>
      </g>
     </g>
    </g>
    <g id="xtick_38">
     <g id="line2d_38">
      <g>
       <use xlink:href="#m9fbd2b2fbd" x="347.975273" y="185.924567" style="stroke: #000000; stroke-width: 0.8"/>
      </g>
     </g>
     <g id="text_38">
      <!-- Dropout -->
      <g transform="translate(350.377617 226.441754)rotate(-90)scale(0.1 -0.1)">
       <use xlink:href="#TimesNewRomanPS-ItalicMT-44"/>
       <use xlink:href="#TimesNewRomanPS-ItalicMT-72" x="72.216797"/>
       <use xlink:href="#TimesNewRomanPS-ItalicMT-6f" x="107.382812"/>
       <use xlink:href="#TimesNewRomanPS-ItalicMT-70" x="157.382812"/>
       <use xlink:href="#TimesNewRomanPS-ItalicMT-6f" x="207.382812"/>
       <use xlink:href="#TimesNewRomanPS-ItalicMT-75" x="257.382812"/>
       <use xlink:href="#TimesNewRomanPS-ItalicMT-74" x="307.382812"/>
      </g>
     </g>
    </g>
    <g id="xtick_39">
     <g id="line2d_39">
      <g>
       <use xlink:href="#m9fbd2b2fbd" x="355.481756" y="185.924567" style="stroke: #000000; stroke-width: 0.8"/>
      </g>
     </g>
     <g id="text_39">
      <!-- Linear -->
      <g transform="translate(357.8841 219.594879)rotate(-90)scale(0.1 -0.1)">
       <use xlink:href="#TimesNewRomanPS-ItalicMT-4c"/>
       <use xlink:href="#TimesNewRomanPS-ItalicMT-69" x="55.615234"/>
       <use xlink:href="#TimesNewRomanPS-ItalicMT-6e" x="83.398438"/>
       <use xlink:href="#TimesNewRomanPS-ItalicMT-65" x="133.398438"/>
       <use xlink:href="#TimesNewRomanPS-ItalicMT-61" x="177.783203"/>
       <use xlink:href="#TimesNewRomanPS-ItalicMT-72" x="227.783203"/>
      </g>
     </g>
    </g>
   </g>
   <g id="matplotlib.axis_2">
    <g id="ytick_1">
     <g id="line2d_40">
      <path d="M 53.84 185.924567 
L 371.877165 185.924567 
" clip-path="url(#pe16dd3fe4d)" style="fill: none; stroke-dasharray: 2.96,1.28; stroke-dashoffset: 0; stroke: #b0b0b0; stroke-width: 0.8"/>
     </g>
     <g id="line2d_41">
      <defs>
       <path id="m09bf382c60" d="M 0 0 
L -3.5 0 
" style="stroke: #000000; stroke-width: 0.8"/>
      </defs>
      <g>
       <use xlink:href="#m09bf382c60" x="53.84" y="185.924567" style="stroke: #000000; stroke-width: 0.8"/>
      </g>
     </g>
     <g id="text_40">
      <!-- 0 -->
      <g transform="translate(40.4775 189.723786)scale(0.1 -0.1)">
       <defs>
        <path id="DejaVuSans-30" d="M 2034 4250 
Q 1547 4250 1301 3770 
Q 1056 3291 1056 2328 
Q 1056 1369 1301 889 
Q 1547 409 2034 409 
Q 2525 409 2770 889 
Q 3016 1369 3016 2328 
Q 3016 3291 2770 3770 
Q 2525 4250 2034 4250 
z
M 2034 4750 
Q 2819 4750 3233 4129 
Q 3647 3509 3647 2328 
Q 3647 1150 3233 529 
Q 2819 -91 2034 -91 
Q 1250 -91 836 529 
Q 422 1150 422 2328 
Q 422 3509 836 4129 
Q 1250 4750 2034 4750 
z
" transform="scale(0.015625)"/>
       </defs>
       <use xlink:href="#DejaVuSans-30"/>
      </g>
     </g>
    </g>
    <g id="ytick_2">
     <g id="line2d_42">
      <path d="M 53.84 143.378992 
L 371.877165 143.378992 
" clip-path="url(#pe16dd3fe4d)" style="fill: none; stroke-dasharray: 2.96,1.28; stroke-dashoffset: 0; stroke: #b0b0b0; stroke-width: 0.8"/>
     </g>
     <g id="line2d_43">
      <g>
       <use xlink:href="#m09bf382c60" x="53.84" y="143.378992" style="stroke: #000000; stroke-width: 0.8"/>
      </g>
     </g>
     <g id="text_41">
      <!-- 100 -->
      <g transform="translate(27.7525 147.178211)scale(0.1 -0.1)">
       <defs>
        <path id="DejaVuSans-31" d="M 794 531 
L 1825 531 
L 1825 4091 
L 703 3866 
L 703 4441 
L 1819 4666 
L 2450 4666 
L 2450 531 
L 3481 531 
L 3481 0 
L 794 0 
L 794 531 
z
" transform="scale(0.015625)"/>
       </defs>
       <use xlink:href="#DejaVuSans-31"/>
       <use xlink:href="#DejaVuSans-30" x="63.623047"/>
       <use xlink:href="#DejaVuSans-30" x="127.246094"/>
      </g>
     </g>
    </g>
    <g id="ytick_3">
     <g id="line2d_44">
      <path d="M 53.84 100.833417 
L 371.877165 100.833417 
" clip-path="url(#pe16dd3fe4d)" style="fill: none; stroke-dasharray: 2.96,1.28; stroke-dashoffset: 0; stroke: #b0b0b0; stroke-width: 0.8"/>
     </g>
     <g id="line2d_45">
      <g>
       <use xlink:href="#m09bf382c60" x="53.84" y="100.833417" style="stroke: #000000; stroke-width: 0.8"/>
      </g>
     </g>
     <g id="text_42">
      <!-- 200 -->
      <g transform="translate(27.7525 104.632636)scale(0.1 -0.1)">
       <defs>
        <path id="DejaVuSans-32" d="M 1228 531 
L 3431 531 
L 3431 0 
L 469 0 
L 469 531 
Q 828 903 1448 1529 
Q 2069 2156 2228 2338 
Q 2531 2678 2651 2914 
Q 2772 3150 2772 3378 
Q 2772 3750 2511 3984 
Q 2250 4219 1831 4219 
Q 1534 4219 1204 4116 
Q 875 4013 500 3803 
L 500 4441 
Q 881 4594 1212 4672 
Q 1544 4750 1819 4750 
Q 2544 4750 2975 4387 
Q 3406 4025 3406 3419 
Q 3406 3131 3298 2873 
Q 3191 2616 2906 2266 
Q 2828 2175 2409 1742 
Q 1991 1309 1228 531 
z
" transform="scale(0.015625)"/>
       </defs>
       <use xlink:href="#DejaVuSans-32"/>
       <use xlink:href="#DejaVuSans-30" x="63.623047"/>
       <use xlink:href="#DejaVuSans-30" x="127.246094"/>
      </g>
     </g>
    </g>
    <g id="ytick_4">
     <g id="line2d_46">
      <path d="M 53.84 58.287842 
L 371.877165 58.287842 
" clip-path="url(#pe16dd3fe4d)" style="fill: none; stroke-dasharray: 2.96,1.28; stroke-dashoffset: 0; stroke: #b0b0b0; stroke-width: 0.8"/>
     </g>
     <g id="line2d_47">
      <g>
       <use xlink:href="#m09bf382c60" x="53.84" y="58.287842" style="stroke: #000000; stroke-width: 0.8"/>
      </g>
     </g>
     <g id="text_43">
      <!-- 300 -->
      <g transform="translate(27.7525 62.087061)scale(0.1 -0.1)">
       <defs>
        <path id="DejaVuSans-33" d="M 2597 2516 
Q 3050 2419 3304 2112 
Q 3559 1806 3559 1356 
Q 3559 666 3084 287 
Q 2609 -91 1734 -91 
Q 1441 -91 1130 -33 
Q 819 25 488 141 
L 488 750 
Q 750 597 1062 519 
Q 1375 441 1716 441 
Q 2309 441 2620 675 
Q 2931 909 2931 1356 
Q 2931 1769 2642 2001 
Q 2353 2234 1838 2234 
L 1294 2234 
L 1294 2753 
L 1863 2753 
Q 2328 2753 2575 2939 
Q 2822 3125 2822 3475 
Q 2822 3834 2567 4026 
Q 2313 4219 1838 4219 
Q 1578 4219 1281 4162 
Q 984 4106 628 3988 
L 628 4550 
Q 988 4650 1302 4700 
Q 1616 4750 1894 4750 
Q 2613 4750 3031 4423 
Q 3450 4097 3450 3541 
Q 3450 3153 3228 2886 
Q 3006 2619 2597 2516 
z
" transform="scale(0.015625)"/>
       </defs>
       <use xlink:href="#DejaVuSans-33"/>
       <use xlink:href="#DejaVuSans-30" x="63.623047"/>
       <use xlink:href="#DejaVuSans-30" x="127.246094"/>
      </g>
     </g>
    </g>
    <g id="ytick_5">
     <g id="line2d_48">
      <path d="M 53.84 15.742267 
L 371.877165 15.742267 
" clip-path="url(#pe16dd3fe4d)" style="fill: none; stroke-dasharray: 2.96,1.28; stroke-dashoffset: 0; stroke: #b0b0b0; stroke-width: 0.8"/>
     </g>
     <g id="line2d_49">
      <g>
       <use xlink:href="#m09bf382c60" x="53.84" y="15.742267" style="stroke: #000000; stroke-width: 0.8"/>
      </g>
     </g>
     <g id="text_44">
      <!-- 400 -->
      <g transform="translate(27.7525 19.541486)scale(0.1 -0.1)">
       <defs>
        <path id="DejaVuSans-34" d="M 2419 4116 
L 825 1625 
L 2419 1625 
L 2419 4116 
z
M 2253 4666 
L 3047 4666 
L 3047 1625 
L 3713 1625 
L 3713 1100 
L 3047 1100 
L 3047 0 
L 2419 0 
L 2419 1100 
L 313 1100 
L 313 1709 
L 2253 4666 
z
" transform="scale(0.015625)"/>
       </defs>
       <use xlink:href="#DejaVuSans-34"/>
       <use xlink:href="#DejaVuSans-30" x="63.623047"/>
       <use xlink:href="#DejaVuSans-30" x="127.246094"/>
      </g>
     </g>
    </g>
    <g id="text_45">
     <!-- MB -->
     <g transform="translate(21.947812 140.362283)rotate(-90)scale(0.14 -0.14)">
      <defs>
       <path id="SimSun-53c2" d="M 4700 3900 
Q 3500 3825 3125 3800 
Q 2925 3475 2725 3150 
L 5300 3150 
L 5625 3475 
L 6075 3000 
L 3750 3000 
Q 4325 2400 4950 2150 
Q 5575 1900 6100 1825 
L 6100 1750 
Q 5750 1675 5600 1450 
Q 5025 1675 4487 2062 
Q 3950 2450 3625 3000 
L 2675 3000 
Q 2250 2450 1750 2050 
Q 1250 1650 325 1225 
L 300 1325 
Q 1200 1850 1625 2262 
Q 2050 2675 2275 3000 
L 800 3000 
L 575 2950 
L 375 3150 
L 2350 3150 
Q 2450 3300 2675 3775 
Q 1650 3725 1325 3575 
L 1150 4025 
Q 1550 4050 2125 4487 
Q 2700 4925 2925 5225 
L 3300 4825 
L 3000 4750 
Q 1925 4125 1575 3975 
L 4625 4000 
Q 4300 4300 3850 4550 
L 3900 4650 
Q 4700 4375 5000 4175 
Q 5300 3975 5300 3775 
Q 5300 3725 5250 3587 
Q 5200 3450 5125 3450 
Q 5075 3450 5025 3525 
Q 4900 3700 4700 3900 
z
M 3250 2700 
L 3650 2300 
L 3450 2250 
Q 2125 1300 1075 1025 
L 1050 1125 
Q 1850 1450 2412 1875 
Q 2975 2300 3250 2700 
z
M 3950 1950 
L 4350 1550 
L 4075 1500 
Q 2425 425 1100 225 
L 1075 325 
Q 2250 675 2875 1075 
Q 3500 1475 3950 1950 
z
M 4800 1250 
L 5175 825 
L 4925 775 
Q 3475 -75 2587 -287 
Q 1700 -500 650 -550 
L 650 -450 
Q 2050 -300 3137 187 
Q 4225 675 4800 1250 
z
" transform="scale(0.015625)"/>
       <path id="SimSun-6570" d="M 1875 1525 
Q 1675 1200 1500 900 
Q 1825 825 2275 725 
Q 2500 975 2725 1525 
L 1875 1525 
z
M 850 4900 
Q 1325 4600 1425 4450 
Q 1525 4300 1525 4225 
Q 1525 4100 1437 3975 
Q 1350 3850 1300 3850 
Q 1225 3850 1150 4100 
Q 1050 4450 775 4850 
L 850 4900 
z
M 3000 4975 
L 3450 4675 
Q 3250 4625 3100 4425 
Q 2925 4225 2525 3825 
L 2450 3875 
Q 2925 4625 3000 4975 
z
M 1875 5250 
L 2425 5000 
L 2225 4825 
L 2225 3675 
L 2850 3675 
L 3125 3950 
L 3550 3525 
L 2225 3525 
L 2225 3300 
Q 2800 3175 2937 3062 
Q 3075 2950 3075 2775 
Q 3075 2700 3050 2587 
Q 3025 2475 2975 2475 
Q 2925 2475 2800 2650 
Q 2600 2925 2225 3175 
L 2225 2400 
L 1925 2200 
L 2275 2050 
Q 2150 2000 1950 1675 
L 2725 1675 
L 2900 1900 
L 3275 1575 
L 3050 1450 
Q 2800 875 2600 650 
Q 3000 550 3137 437 
Q 3275 325 3275 150 
Q 3275 -25 3200 -25 
Q 3125 -25 3025 75 
Q 2750 275 2400 425 
Q 1525 -275 325 -500 
L 300 -425 
Q 1450 -50 2100 550 
Q 1600 725 1125 800 
Q 1225 950 1525 1525 
L 1200 1525 
Q 875 1525 600 1450 
L 375 1675 
L 1575 1675 
Q 1675 1925 1775 2275 
L 1900 2225 
L 1900 3250 
Q 1225 2475 350 2050 
L 300 2125 
Q 1225 2775 1700 3525 
L 1250 3525 
Q 925 3525 650 3450 
L 425 3675 
L 1900 3675 
Q 1900 4575 1875 5250 
z
M 3925 3525 
Q 4050 2075 4525 1100 
Q 4925 1950 5025 3525 
L 3925 3525 
z
M 4050 5250 
L 4625 4925 
Q 4425 4850 4325 4625 
Q 4225 4400 3950 3675 
L 5375 3675 
L 5675 3975 
L 6125 3525 
L 5400 3525 
Q 5250 1675 4750 775 
Q 5325 75 6100 -100 
L 6100 -200 
Q 5625 -275 5600 -500 
Q 4950 -50 4525 525 
Q 3700 -275 2550 -650 
L 2500 -575 
Q 3650 -50 4325 800 
Q 3850 1975 3825 3375 
Q 3575 2725 3100 2150 
L 3025 2200 
Q 3625 3200 4050 5250 
z
" transform="scale(0.015625)"/>
       <path id="SimSun-91cf" d="M 1700 2400 
L 1700 1875 
L 3025 1875 
L 3025 2400 
L 1700 2400 
z
M 3350 2400 
L 3350 1875 
L 4625 1875 
L 4625 2400 
L 3350 2400 
z
M 1700 1725 
L 1700 1225 
L 3025 1225 
L 3025 1725 
L 1700 1725 
z
M 3350 1725 
L 3350 1225 
L 4625 1225 
L 4625 1725 
L 3350 1725 
z
M 4950 2325 
Q 4950 1350 4975 1025 
L 4625 875 
L 4625 1075 
L 3350 1075 
L 3350 525 
L 4700 525 
L 5050 825 
L 5450 375 
L 3350 375 
L 3350 -225 
L 5275 -225 
L 5650 125 
L 6075 -375 
L 1175 -375 
Q 850 -375 575 -450 
L 350 -225 
L 3025 -225 
L 3025 375 
L 1725 375 
Q 1400 375 1125 300 
L 900 525 
L 3025 525 
L 3025 1075 
L 1700 1075 
L 1700 925 
L 1350 800 
Q 1375 1300 1375 1787 
Q 1375 2275 1350 2750 
L 1700 2550 
L 4600 2550 
L 4750 2750 
L 5125 2475 
L 4950 2325 
z
M 1775 4800 
L 1775 4375 
L 4550 4375 
L 4550 4800 
L 1775 4800 
z
M 1775 4225 
L 1775 3775 
L 4550 3775 
L 4550 4225 
L 1775 4225 
z
M 4875 4750 
Q 4875 3825 4900 3525 
L 4550 3375 
L 4550 3625 
L 1775 3625 
L 1775 3400 
L 1425 3250 
Q 1450 3650 1450 4262 
Q 1450 4875 1425 5125 
L 1800 4950 
L 4500 4950 
L 4650 5175 
L 5050 4900 
L 4875 4750 
z
M 250 3125 
L 5375 3125 
L 5725 3450 
L 6150 2975 
L 950 2975 
Q 750 2975 475 2900 
L 250 3125 
z
" transform="scale(0.015625)"/>
       <path id="SimSun-ff08" d="M 5087 200 
Q 5475 -100 5425 -150 
Q 5375 -200 4950 87 
Q 4525 375 4137 850 
Q 3750 1325 3687 2100 
Q 3625 2875 4000 3487 
Q 4375 4100 4887 4462 
Q 5400 4825 5412 4762 
Q 5425 4700 5075 4425 
Q 4725 4125 4387 3600 
Q 4050 3075 4050 2250 
Q 4050 1425 4375 962 
Q 4700 500 5087 200 
z
" transform="scale(0.015625)"/>
       <path id="SimSun-4d" d="M 2800 450 
Q 2800 350 2862 300 
Q 2925 250 3025 250 
L 3125 250 
L 3125 100 
L 2050 100 
L 2050 250 
L 2175 250 
Q 2300 250 2350 300 
Q 2400 350 2400 450 
L 2400 3725 
L 2350 3725 
L 1500 100 
L 1350 100 
L 575 3650 
L 525 3650 
L 525 450 
Q 525 350 587 300 
Q 650 250 750 250 
L 825 250 
L 825 100 
L 75 100 
L 75 250 
L 150 250 
Q 275 250 325 300 
Q 375 350 375 450 
L 375 4025 
Q 375 4125 325 4175 
Q 275 4225 150 4225 
L 50 4225 
L 50 4375 
L 775 4375 
L 1500 1025 
L 1550 1025 
L 2325 4375 
L 3125 4375 
L 3125 4225 
L 3025 4225 
Q 2925 4225 2862 4175 
Q 2800 4125 2800 4025 
L 2800 450 
z
" transform="scale(0.015625)"/>
       <path id="SimSun-42" d="M 100 100 
L 100 250 
L 300 250 
Q 425 250 475 300 
Q 525 350 525 450 
L 525 4025 
Q 525 4125 475 4175 
Q 425 4225 300 4225 
L 150 4225 
L 150 4375 
L 1600 4375 
Q 2200 4375 2487 4137 
Q 2775 3900 2775 3400 
Q 2775 3050 2625 2825 
Q 2475 2600 2000 2425 
Q 2575 2250 2775 1925 
Q 2975 1600 2975 1200 
Q 2975 700 2625 400 
Q 2275 100 1675 100 
L 100 100 
z
M 1600 250 
Q 2025 250 2262 512 
Q 2500 775 2500 1250 
Q 2500 1800 2250 2062 
Q 2000 2325 1500 2325 
L 925 2325 
L 925 450 
Q 925 350 987 300 
Q 1050 250 1150 250 
L 1600 250 
z
M 2350 3400 
Q 2350 3850 2100 4037 
Q 1850 4225 1450 4225 
L 1150 4225 
Q 1050 4225 987 4175 
Q 925 4125 925 4025 
L 925 2475 
L 1575 2475 
Q 1850 2475 2100 2700 
Q 2350 2925 2350 3400 
z
" transform="scale(0.015625)"/>
       <path id="SimSun-ff09" d="M 2337 875 
Q 1925 350 1437 62 
Q 950 -225 937 -162 
Q 925 -100 1300 175 
Q 1650 425 2037 1012 
Q 2425 1600 2375 2375 
Q 2325 3150 1987 3662 
Q 1650 4175 1300 4475 
Q 925 4775 937 4837 
Q 950 4900 1412 4587 
Q 1875 4275 2325 3662 
Q 2775 3050 2762 2225 
Q 2750 1400 2337 875 
z
" transform="scale(0.015625)"/>
      </defs>
      <use xlink:href="#SimSun-53c2"/>
      <use xlink:href="#SimSun-6570" x="100"/>
      <use xlink:href="#SimSun-91cf" x="200"/>
      <use xlink:href="#SimSun-ff08" x="300"/>
      <use xlink:href="#SimSun-4d" x="400"/>
      <use xlink:href="#SimSun-42" x="450"/>
      <use xlink:href="#SimSun-ff09" x="500"/>
     </g>
    </g>
   </g>
   <g id="patch_81">
    <path d="M 53.84 185.924567 
L 53.84 10.8 
" style="fill: none; stroke: #000000; stroke-width: 0.8; stroke-linejoin: miter; stroke-linecap: square"/>
   </g>
   <g id="patch_82">
    <path d="M 371.877165 185.924567 
L 371.877165 10.8 
" style="fill: none; stroke: #000000; stroke-width: 0.8; stroke-linejoin: miter; stroke-linecap: square"/>
   </g>
   <g id="patch_83">
    <path d="M 53.84 185.924567 
L 371.877165 185.924567 
" style="fill: none; stroke: #000000; stroke-width: 0.8; stroke-linejoin: miter; stroke-linecap: square"/>
   </g>
   <g id="patch_84">
    <path d="M 53.84 10.8 
L 371.877165 10.8 
" style="fill: none; stroke: #000000; stroke-width: 0.8; stroke-linejoin: miter; stroke-linecap: square"/>
   </g>
   <g id="legend_1">
    <g id="patch_85">
     <path d="M 60.84 47.315625 
L 172.84 47.315625 
Q 174.84 47.315625 174.84 45.315625 
L 174.84 17.8 
Q 174.84 15.8 172.84 15.8 
L 60.84 15.8 
Q 58.84 15.8 58.84 17.8 
L 58.84 45.315625 
Q 58.84 47.315625 60.84 47.315625 
z
" style="fill: #ffffff; opacity: 0.8; stroke: #cccccc; stroke-linejoin: miter"/>
    </g>
    <g id="patch_86">
     <path d="M 62.84 27.76875 
L 82.84 27.76875 
L 82.84 20.76875 
L 62.84 20.76875 
z
" style="fill: #f66a6a"/>
    </g>
    <g id="text_46">
     <!--  -->
     <g transform="translate(90.84 27.76875)scale(0.1 -0.1)">
      <defs>
       <path id="SimSun-6bcf" d="M 2375 4950 
L 2175 4850 
Q 2025 4650 1900 4475 
L 4875 4475 
L 5250 4850 
L 5775 4325 
L 1825 4325 
Q 1500 3900 1175 3562 
Q 850 3225 325 2900 
L 275 2975 
Q 750 3375 1200 4037 
Q 1650 4700 1825 5275 
L 2375 4950 
z
M 1300 775 
L 1475 2075 
L 825 2075 
L 450 2025 
L 250 2225 
L 1500 2225 
L 1650 3825 
L 2000 3600 
L 4600 3600 
L 4800 3875 
L 5225 3550 
L 5000 3375 
L 4950 2225 
L 5275 2225 
L 5625 2575 
L 6125 2075 
L 4950 2075 
L 4875 675 
L 5150 675 
L 5500 1025 
L 6000 525 
L 4850 525 
Q 4800 -50 4675 -300 
Q 4550 -550 4075 -650 
Q 4100 -350 3425 -100 
L 3425 25 
Q 4050 -125 4237 -125 
Q 4425 -125 4475 525 
L 1650 525 
L 1450 300 
L 1100 625 
L 1300 775 
z
M 1975 3450 
L 1850 2225 
L 4600 2225 
L 4650 3450 
L 1975 3450 
z
M 1825 2075 
L 1650 675 
L 4500 675 
L 4575 2075 
L 1825 2075 
z
M 2725 3350 
Q 3225 3150 3412 3025 
Q 3600 2900 3600 2725 
Q 3600 2600 3525 2450 
Q 3450 2300 3425 2300 
Q 3350 2300 3250 2525 
Q 3100 2875 2675 3275 
L 2725 3350 
z
M 2675 1950 
Q 3275 1675 3412 1525 
Q 3550 1375 3550 1250 
Q 3550 1100 3462 950 
Q 3375 800 3325 800 
Q 3250 800 3175 1050 
Q 3050 1425 2625 1875 
L 2675 1950 
z
" transform="scale(0.015625)"/>
       <path id="SimSun-5c42" d="M 2075 2775 
L 4775 2775 
L 5075 3075 
L 5525 2625 
L 2900 2625 
Q 2525 2625 2300 2550 
L 2075 2775 
z
M 4350 850 
Q 4825 575 5162 300 
Q 5500 25 5525 -175 
Q 5550 -375 5450 -487 
Q 5350 -600 5325 -600 
Q 5250 -600 5225 -525 
Q 5125 -350 4975 -75 
Q 3800 -175 3087 -275 
Q 2375 -375 2150 -525 
L 1900 -50 
Q 2225 -25 2700 575 
Q 3175 1175 3350 1625 
L 2400 1625 
Q 2075 1625 1800 1550 
L 1575 1775 
L 5225 1775 
L 5550 2100 
L 6025 1625 
L 3425 1625 
L 3900 1300 
Q 3675 1225 3275 825 
Q 2875 400 2350 -50 
L 4925 25 
Q 4700 375 4275 775 
L 4350 850 
z
M 1550 4675 
L 1550 3825 
L 5050 3825 
L 5050 4675 
L 1550 4675 
z
M 250 -575 
Q 725 150 925 925 
Q 1125 1700 1150 2462 
Q 1175 3225 1175 3862 
Q 1175 4500 1150 5025 
L 1550 4825 
L 5025 4825 
L 5275 5075 
L 5625 4725 
L 5425 4575 
Q 5425 4300 5425 4012 
Q 5425 3725 5450 3525 
L 5050 3375 
L 5050 3675 
L 1550 3675 
Q 1550 2925 1475 2150 
Q 1400 1375 1162 700 
Q 925 25 325 -650 
L 250 -575 
z
" transform="scale(0.015625)"/>
       <path id="SimSun-4e2a" d="M 2975 -650 
Q 3000 350 3000 750 
L 3000 2400 
Q 3000 2850 2975 3475 
L 3575 3150 
L 3375 3000 
L 3375 500 
Q 3375 75 3400 -400 
L 2975 -650 
z
M 3525 4975 
L 3300 4825 
Q 3975 3800 4712 3287 
Q 5450 2775 6125 2675 
L 6125 2575 
Q 5725 2550 5550 2250 
Q 4800 2650 4275 3200 
Q 3750 3750 3225 4675 
Q 2650 3675 2000 3075 
Q 1350 2475 275 2025 
L 250 2125 
Q 1325 2650 2037 3575 
Q 2750 4500 3000 5275 
L 3525 4975 
z
" transform="scale(0.015625)"/>
      </defs>
      <use xlink:href="#SimSun-6bcf"/>
      <use xlink:href="#SimSun-5c42" x="100"/>
      <use xlink:href="#SimSun-53c2" x="200"/>
      <use xlink:href="#SimSun-6570" x="300"/>
      <use xlink:href="#SimSun-4e2a" x="400"/>
      <use xlink:href="#SimSun-6570" x="500"/>
     </g>
    </g>
    <g id="patch_87">
     <path d="M 62.84 42.026563 
L 82.84 42.026563 
L 82.84 35.026563 
L 62.84 35.026563 
z
" style="fill: #36738e"/>
    </g>
    <g id="text_47">
     <!-- tensor -->
     <g transform="translate(90.84 42.026563)scale(0.1 -0.1)">
      <defs>
       <path id="SimSun-8f93" d="M 2925 2525 
L 2925 1875 
L 3700 1875 
L 3700 2525 
L 2925 2525 
z
M 2925 1725 
L 2925 1050 
L 3700 1050 
L 3700 1725 
L 2925 1725 
z
M 4100 4750 
Q 3300 3375 2125 2825 
L 2075 2900 
Q 2800 3400 3237 4025 
Q 3675 4650 3900 5275 
L 4400 4975 
L 4200 4850 
Q 4950 3625 6150 3400 
L 6150 3300 
Q 5775 3275 5700 3025 
Q 4725 3550 4100 4750 
z
M 2600 -650 
Q 2625 -150 2625 1087 
Q 2625 2325 2600 2850 
L 2950 2675 
L 3650 2675 
L 3825 2900 
L 4175 2625 
L 4000 2475 
L 4000 -150 
Q 4000 -525 3625 -650 
Q 3550 -350 3150 -275 
L 3150 -175 
Q 3400 -200 3550 -200 
Q 3700 -200 3700 0 
L 3700 900 
L 2925 900 
L 2925 -475 
L 2600 -650 
z
M 4500 350 
Q 4525 700 4525 1475 
Q 4525 2250 4500 2625 
L 4975 2375 
L 4825 2250 
L 4825 500 
L 4500 350 
z
M 5350 2125 
Q 5350 2400 5325 2875 
L 5825 2650 
L 5650 2475 
L 5650 -75 
Q 5675 -475 5175 -625 
Q 5150 -300 4525 -175 
L 4525 -75 
Q 5000 -100 5175 -100 
Q 5350 -100 5350 100 
L 5350 2125 
z
M 1475 2525 
Q 1475 3175 1450 3525 
L 1975 3275 
L 1800 3100 
L 1800 2525 
L 1925 2525 
L 2175 2750 
L 2525 2375 
L 1800 2375 
L 1800 1325 
L 2475 1450 
L 2500 1350 
L 1800 1150 
Q 1800 -50 1825 -500 
L 1450 -650 
Q 1475 400 1475 1050 
Q 550 800 475 625 
L 250 1050 
Q 800 1125 1475 1250 
L 1475 2375 
L 750 2375 
L 550 2200 
L 275 2600 
Q 450 2650 600 3000 
Q 750 3350 950 3950 
L 900 3950 
Q 725 3950 450 3875 
L 225 4100 
L 1000 4100 
Q 1150 4700 1275 5200 
L 1750 4925 
Q 1625 4850 1550 4712 
Q 1475 4575 1325 4100 
L 2025 4100 
L 2325 4375 
L 2700 3950 
L 1275 3950 
L 750 2525 
L 1475 2525 
z
M 3150 3450 
L 4425 3450 
L 4675 3700 
L 5050 3300 
L 3850 3300 
L 3200 3400 
L 3350 3250 
L 3150 3450 
z
" transform="scale(0.015625)"/>
       <path id="SimSun-51fa" d="M 5175 3975 
L 5175 3000 
Q 5175 2750 5225 2300 
L 4825 2150 
L 4825 2450 
L 3350 2450 
L 3350 25 
L 5075 25 
L 5075 1125 
Q 5075 1475 5050 1900 
L 5625 1575 
L 5425 1425 
L 5425 500 
Q 5425 50 5450 -400 
L 5075 -525 
L 5075 -125 
L 1325 -125 
L 1150 -300 
L 800 -25 
L 975 150 
L 975 1125 
Q 975 1500 950 1950 
L 1525 1650 
L 1325 1475 
L 1325 25 
L 3000 25 
L 3000 2450 
L 1550 2450 
L 1350 2275 
L 1000 2550 
L 1175 2700 
L 1175 3725 
Q 1175 4025 1150 4375 
L 1750 4075 
L 1525 3925 
L 1525 2600 
L 3000 2600 
L 3000 4250 
Q 3000 4700 2975 5125 
L 3550 4850 
L 3350 4625 
L 3350 2600 
L 4825 2600 
L 4825 3725 
Q 4825 4025 4800 4425 
L 5375 4150 
L 5175 3975 
z
" transform="scale(0.015625)"/>
       <path id="SimSun-74" d="M 1500 900 
Q 1500 550 1625 425 
Q 1750 300 2000 300 
Q 2250 300 2400 462 
Q 2550 625 2600 925 
L 2725 875 
Q 2675 525 2462 300 
Q 2250 75 1900 75 
Q 1525 75 1337 300 
Q 1150 525 1150 1000 
L 1150 2750 
L 400 2750 
L 400 2900 
L 600 2900 
Q 900 2900 1087 3087 
Q 1275 3275 1325 3675 
L 1350 3875 
L 1500 3875 
L 1500 2900 
L 2500 2900 
L 2500 2750 
L 1500 2750 
L 1500 900 
z
" transform="scale(0.015625)"/>
       <path id="SimSun-65" d="M 2400 1650 
Q 2425 2200 2212 2487 
Q 2000 2775 1650 2775 
Q 1275 2775 1037 2475 
Q 800 2175 800 1650 
L 2400 1650 
z
M 800 1500 
Q 800 825 1062 537 
Q 1325 250 1750 250 
Q 2075 250 2300 437 
Q 2525 625 2625 900 
L 2750 850 
Q 2675 575 2412 312 
Q 2150 50 1700 50 
Q 1125 50 762 425 
Q 400 800 400 1500 
Q 400 2125 762 2537 
Q 1125 2950 1650 2950 
Q 2125 2950 2475 2625 
Q 2825 2300 2825 1500 
L 800 1500 
z
" transform="scale(0.015625)"/>
       <path id="SimSun-6e" d="M 200 100 
L 200 250 
L 325 250 
Q 450 250 500 300 
Q 550 350 550 450 
L 550 2600 
Q 550 2675 525 2712 
Q 500 2750 425 2750 
L 225 2750 
L 225 2900 
L 400 2900 
Q 525 2900 637 2925 
Q 750 2950 850 3025 
L 900 3025 
L 900 2450 
Q 1125 2700 1350 2825 
Q 1575 2950 1825 2950 
Q 2250 2950 2450 2725 
Q 2650 2500 2650 2050 
L 2650 450 
Q 2650 350 2712 300 
Q 2775 250 2875 250 
L 3000 250 
L 3000 100 
L 1950 100 
L 1950 250 
L 2075 250 
Q 2200 250 2250 300 
Q 2300 350 2300 450 
L 2300 2125 
Q 2300 2425 2175 2587 
Q 2050 2750 1800 2750 
Q 1575 2750 1337 2600 
Q 1100 2450 900 2175 
L 900 450 
Q 900 350 962 300 
Q 1025 250 1125 250 
L 1250 250 
L 1250 100 
L 200 100 
z
" transform="scale(0.015625)"/>
       <path id="SimSun-73" d="M 625 2175 
Q 625 2550 912 2750 
Q 1200 2950 1600 2950 
Q 1825 2950 2025 2900 
Q 2225 2825 2300 2825 
Q 2375 2825 2425 2850 
Q 2475 2875 2550 2950 
L 2650 2125 
L 2500 2100 
Q 2400 2425 2162 2612 
Q 1925 2800 1625 2800 
Q 1300 2800 1112 2675 
Q 925 2550 925 2325 
Q 925 2125 1012 2012 
Q 1100 1900 1325 1850 
Q 1500 1775 1775 1700 
Q 2025 1600 2250 1500 
Q 2450 1400 2587 1237 
Q 2725 1075 2725 875 
Q 2725 500 2462 287 
Q 2200 75 1700 75 
Q 1375 75 1225 150 
Q 1050 200 950 200 
Q 875 200 787 162 
Q 700 125 600 75 
L 525 1000 
L 675 1025 
Q 750 625 1000 425 
Q 1250 225 1700 225 
Q 2050 225 2237 350 
Q 2425 475 2425 725 
Q 2425 900 2325 1012 
Q 2225 1125 2125 1175 
Q 1875 1275 1575 1400 
Q 1275 1500 1050 1600 
Q 825 1700 725 1850 
Q 625 2000 625 2175 
z
" transform="scale(0.015625)"/>
       <path id="SimSun-6f" d="M 2900 1500 
Q 2900 875 2525 462 
Q 2150 50 1600 50 
Q 1025 50 662 475 
Q 300 900 300 1500 
Q 300 2050 662 2500 
Q 1025 2950 1600 2950 
Q 2200 2950 2550 2500 
Q 2900 2050 2900 1500 
z
M 700 1475 
Q 700 825 962 512 
Q 1225 200 1600 200 
Q 2025 200 2262 537 
Q 2500 875 2500 1475 
Q 2500 2125 2237 2462 
Q 1975 2800 1600 2800 
Q 1250 2800 975 2462 
Q 700 2125 700 1475 
z
" transform="scale(0.015625)"/>
       <path id="SimSun-72" d="M 1275 2125 
Q 1525 2525 1812 2737 
Q 2100 2950 2400 2950 
Q 2650 2950 2787 2837 
Q 2925 2725 2925 2575 
Q 2925 2450 2862 2375 
Q 2800 2300 2675 2300 
Q 2550 2300 2487 2375 
Q 2425 2450 2450 2575 
Q 2450 2650 2425 2700 
Q 2400 2750 2275 2750 
Q 2075 2750 1787 2500 
Q 1500 2250 1275 1800 
L 1275 450 
Q 1275 350 1337 300 
Q 1400 250 1500 250 
L 2050 250 
L 2050 100 
L 200 100 
L 200 250 
L 700 250 
Q 825 250 875 300 
Q 925 350 925 450 
L 925 2525 
Q 925 2625 875 2687 
Q 825 2750 700 2750 
L 225 2750 
L 225 2900 
L 425 2900 
Q 600 2900 837 2937 
Q 1075 2975 1200 3025 
L 1275 3025 
L 1275 2125 
z
" transform="scale(0.015625)"/>
       <path id="SimSun-636e" d="M 3125 -650 
Q 3150 -100 3150 512 
Q 3150 1125 3125 1600 
L 3475 1400 
L 4175 1400 
L 4175 2400 
L 3000 2400 
Q 2825 625 1675 -525 
L 1600 -450 
Q 2150 275 2437 1187 
Q 2725 2100 2737 3312 
Q 2750 4525 2725 5050 
L 3100 4825 
L 5150 4825 
L 5350 5025 
L 5700 4700 
L 5500 4575 
Q 5500 3825 5525 3475 
L 5175 3325 
L 5175 3625 
L 3075 3625 
Q 3075 3150 3025 2550 
L 4175 2550 
Q 4175 3025 4150 3475 
L 4700 3225 
L 4500 3075 
L 4500 2550 
L 5325 2550 
L 5600 2825 
L 6025 2400 
L 4500 2400 
L 4500 1400 
L 5150 1400 
L 5350 1625 
L 5700 1300 
L 5500 1150 
Q 5500 150 5525 -400 
L 5175 -600 
L 5175 -75 
L 3475 -75 
L 3475 -500 
L 3125 -650 
z
M 3075 4675 
L 3075 3775 
L 5175 3775 
L 5175 4675 
L 3075 4675 
z
M 3475 1250 
L 3475 75 
L 5175 75 
L 5175 1250 
L 3475 1250 
z
M 1675 2450 
L 2500 2925 
L 2550 2825 
L 1675 2175 
L 1675 150 
Q 1650 -300 1125 -500 
Q 1175 -250 500 25 
L 500 125 
Q 1050 25 1187 37 
Q 1325 50 1325 225 
L 1325 2000 
Q 625 1500 600 1350 
L 225 1800 
Q 375 1825 1325 2300 
L 1325 3575 
L 750 3575 
L 450 3525 
L 250 3725 
L 1325 3725 
Q 1325 4750 1300 5175 
L 1875 4875 
L 1675 4700 
L 1675 3725 
L 1950 3725 
L 2275 4000 
L 2650 3575 
L 1675 3575 
L 1675 2450 
z
" transform="scale(0.015625)"/>
      </defs>
      <use xlink:href="#SimSun-8f93"/>
      <use xlink:href="#SimSun-51fa" x="100"/>
      <use xlink:href="#SimSun-74" x="200"/>
      <use xlink:href="#SimSun-65" x="250"/>
      <use xlink:href="#SimSun-6e" x="300"/>
      <use xlink:href="#SimSun-73" x="350"/>
      <use xlink:href="#SimSun-6f" x="400"/>
      <use xlink:href="#SimSun-72" x="450"/>
      <use xlink:href="#SimSun-6570" x="500"/>
      <use xlink:href="#SimSun-636e" x="600"/>
      <use xlink:href="#SimSun-91cf" x="700"/>
     </g>
    </g>
   </g>
  </g>
 </g>
 <defs>
  <clipPath id="pe16dd3fe4d">
   <rect x="53.84" y="10.8" width="318.037165" height="175.124567"/>
  </clipPath>
 </defs>
</svg>
